<svg width="9" height="16" viewBox="0 0 9 16" fill="none" xmlns="http://www.w3.org/2000/svg">
<mask id="path-1-inside-1" fill="white">
<path d="M8.14551 0.626319C7.97363 0.628923 7.81217 0.700538 7.69368 0.824235L1.11426 7.40366C0.857747 7.66017 0.857747 8.07684 1.11426 8.33335L7.69368 14.9128C7.85775 15.0847 8.10514 15.1537 8.33301 15.0925C8.56478 15.0339 8.74446 14.8529 8.80436 14.6224C8.86556 14.3932 8.79655 14.1472 8.62337 13.9818L2.51009 7.86851L8.62337 1.75523C8.81868 1.56512 8.87597 1.27606 8.77051 1.02736C8.66504 0.776058 8.41894 0.615902 8.14551 0.626319Z"/>
</mask>
<path d="M8.14551 0.626319C7.97363 0.628923 7.81217 0.700538 7.69368 0.824235L1.11426 7.40366C0.857747 7.66017 0.857747 8.07684 1.11426 8.33335L7.69368 14.9128C7.85775 15.0847 8.10514 15.1537 8.33301 15.0925C8.56478 15.0339 8.74446 14.8529 8.80436 14.6224C8.86556 14.3932 8.79655 14.1472 8.62337 13.9818L2.51009 7.86851L8.62337 1.75523C8.81868 1.56512 8.87597 1.27606 8.77051 1.02736C8.66504 0.776058 8.41894 0.615902 8.14551 0.626319Z" fill="white"/>
<path d="M8.14551 0.626319L8.17581 2.62609L8.19873 2.62574L8.22164 2.62487L8.14551 0.626319ZM7.69368 0.824235L9.1079 2.23845L9.1231 2.22324L9.13797 2.20772L7.69368 0.824235ZM1.11426 7.40366L-0.299956 5.98945L1.11426 7.40366ZM1.11426 8.33335L-0.299956 9.74756L1.11426 8.33335ZM7.69368 14.9128L9.14039 13.5318L9.12434 13.515L9.1079 13.4986L7.69368 14.9128ZM8.33301 15.0925L7.84281 13.1535L7.8285 13.1571L7.81425 13.1609L8.33301 15.0925ZM8.80436 14.6224L6.87203 14.1064L6.86866 14.1194L8.80436 14.6224ZM8.62337 13.9818L7.20916 15.396L7.22547 15.4123L7.24216 15.4283L8.62337 13.9818ZM2.51009 7.86851L1.09588 6.45429L-0.318336 7.86851L1.09588 9.28272L2.51009 7.86851ZM8.62337 1.75523L7.22839 0.322032L7.21871 0.331457L7.20916 0.341012L8.62337 1.75523ZM8.77051 1.02736L6.92632 1.80134L6.92924 1.80821L8.77051 1.02736ZM8.1152 -1.37345C7.39976 -1.36261 6.73172 -1.06277 6.24939 -0.559247L9.13797 2.20772C8.89263 2.46385 8.5475 2.62046 8.17581 2.62609L8.1152 -1.37345ZM6.27947 -0.589978L-0.299956 5.98945L2.52847 8.81788L9.1079 2.23845L6.27947 -0.589978ZM-0.299956 5.98945C-1.33751 7.02701 -1.33751 8.71 -0.299956 9.74756L2.52847 6.91914C3.05301 7.44368 3.05301 8.29334 2.52847 8.81788L-0.299956 5.98945ZM-0.299956 9.74756L6.27947 16.327L9.1079 13.4986L2.52847 6.91914L-0.299956 9.74756ZM6.24697 16.2937C6.91551 16.9941 7.91642 17.2752 8.85177 17.024L7.81425 13.1609C8.29386 13.0321 8.79998 13.1752 9.14039 13.5318L6.24697 16.2937ZM8.8232 17.0315C9.77272 16.7914 10.4991 16.0526 10.7401 15.1255L6.86866 14.1194C6.98981 13.6532 7.35683 13.2763 7.84281 13.1535L8.8232 17.0315ZM10.7366 15.1384C10.9871 14.2004 10.7037 13.2029 10.0046 12.5353L7.24216 15.4283C6.88941 15.0914 6.74398 14.5861 6.87207 14.1064L10.7366 15.1384ZM10.0376 12.5676L3.9243 6.45429L1.09588 9.28272L7.20916 15.396L10.0376 12.5676ZM3.9243 9.28272L10.0376 3.16944L7.20916 0.341012L1.09588 6.45429L3.9243 9.28272ZM10.0183 3.18842C10.806 2.42177 11.0386 1.25307 10.6118 0.246509L6.92924 1.80821C6.71331 1.29905 6.83136 0.708475 7.22839 0.322032L10.0183 3.18842ZM10.6147 0.253383C10.1926 -0.752373 9.19051 -1.41494 8.06937 -1.37223L8.22164 2.62487C7.64738 2.64675 7.1375 2.30449 6.92634 1.80134L10.6147 0.253383Z" fill="white" mask="url(#path-1-inside-1)"/>
</svg>
