<svg width="20" height="20" viewBox="0 0 20 20" fill="none" xmlns="http://www.w3.org/2000/svg">
<mask id="path-1-inside-1" fill="white">
<path d="M13.1455 2.62632C12.9736 2.62892 12.8122 2.70054 12.6937 2.82424L6.11426 9.40366C5.85775 9.66017 5.85775 10.0768 6.11426 10.3334L12.6937 16.9128C12.8577 17.0847 13.1051 17.1537 13.333 17.0925C13.5648 17.0339 13.7445 16.8529 13.8044 16.6224C13.8656 16.3932 13.7965 16.1472 13.6234 15.9818L7.51009 9.86851L13.6234 3.75523C13.8187 3.56512 13.876 3.27606 13.7705 3.02736C13.665 2.77606 13.4189 2.6159 13.1455 2.62632Z"/>
</mask>
<path d="M13.1455 2.62632C12.9736 2.62892 12.8122 2.70054 12.6937 2.82424L6.11426 9.40366C5.85775 9.66017 5.85775 10.0768 6.11426 10.3334L12.6937 16.9128C12.8577 17.0847 13.1051 17.1537 13.333 17.0925C13.5648 17.0339 13.7445 16.8529 13.8044 16.6224C13.8656 16.3932 13.7965 16.1472 13.6234 15.9818L7.51009 9.86851L13.6234 3.75523C13.8187 3.56512 13.876 3.27606 13.7705 3.02736C13.665 2.77606 13.4189 2.6159 13.1455 2.62632Z" fill="white"/>
<path d="M13.1455 2.62632L13.1758 4.62609L13.1987 4.62574L13.2216 4.62487L13.1455 2.62632ZM12.6937 2.82424L14.1079 4.23845L14.1231 4.22324L14.138 4.20772L12.6937 2.82424ZM6.11426 9.40366L4.70004 7.98945L6.11426 9.40366ZM6.11426 10.3334L4.70004 11.7476L6.11426 10.3334ZM12.6937 16.9128L14.1404 15.5318L14.1243 15.515L14.1079 15.4986L12.6937 16.9128ZM13.333 17.0925L12.8428 15.1535L12.8285 15.1571L12.8142 15.1609L13.333 17.0925ZM13.8044 16.6224L11.872 16.1064L11.8687 16.1194L13.8044 16.6224ZM13.6234 15.9818L12.2092 17.396L12.2255 17.4123L12.2422 17.4283L13.6234 15.9818ZM7.51009 9.86851L6.09588 8.45429L4.68166 9.86851L6.09588 11.2827L7.51009 9.86851ZM13.6234 3.75523L12.2284 2.32203L12.2187 2.33146L12.2092 2.34101L13.6234 3.75523ZM13.7705 3.02736L11.9263 3.80134L11.9292 3.80821L13.7705 3.02736ZM13.1152 0.626548C12.3998 0.637389 11.7317 0.937227 11.2494 1.44075L14.138 4.20772C13.8926 4.46385 13.5475 4.62046 13.1758 4.62609L13.1152 0.626548ZM11.2795 1.41002L4.70004 7.98945L7.52847 10.8179L14.1079 4.23845L11.2795 1.41002ZM4.70004 7.98945C3.66249 9.02701 3.66249 10.71 4.70004 11.7476L7.52847 8.91914C8.05301 9.44368 8.05301 10.2933 7.52847 10.8179L4.70004 7.98945ZM4.70004 11.7476L11.2795 18.327L14.1079 15.4986L7.52847 8.91914L4.70004 11.7476ZM11.247 18.2937C11.9155 18.9941 12.9164 19.2752 13.8518 19.024L12.8142 15.1609C13.2939 15.0321 13.8 15.1752 14.1404 15.5318L11.247 18.2937ZM13.8232 19.0315C14.7727 18.7914 15.4991 18.0526 15.7401 17.1255L11.8687 16.1194C11.9898 15.6532 12.3568 15.2763 12.8428 15.1535L13.8232 19.0315ZM15.7366 17.1384C15.9871 16.2004 15.7037 15.2029 15.0046 14.5353L12.2422 17.4283C11.8894 17.0914 11.744 16.5861 11.8721 16.1064L15.7366 17.1384ZM15.0376 14.5676L8.9243 8.45429L6.09588 11.2827L12.2092 17.396L15.0376 14.5676ZM8.9243 11.2827L15.0376 5.16944L12.2092 2.34101L6.09588 8.45429L8.9243 11.2827ZM15.0183 5.18842C15.806 4.42177 16.0386 3.25307 15.6118 2.24651L11.9292 3.80821C11.7133 3.29905 11.8314 2.70847 12.2284 2.32203L15.0183 5.18842ZM15.6147 2.25338C15.1926 1.24763 14.1905 0.585058 13.0694 0.627768L13.2216 4.62487C12.6474 4.64675 12.1375 4.30449 11.9263 3.80134L15.6147 2.25338Z" fill="white" mask="url(#path-1-inside-1)"/>
</svg>
