<svg width="18" height="18" viewBox="0 0 18 18" fill="none" xmlns="http://www.w3.org/2000/svg">
<path d="M12.2322 0.747437L12.0311 1.04908L8.86145 5.61376L6.07145 6.43994L6.0602 6.45119H6.04895C5.69598 6.58337 5.42246 6.8147 5.21223 7.10931L5.20098 7.12056V7.13181L2.78996 10.8485L2.70066 10.5581L0.357148 11.2613L0.0224609 11.3731L0.123008 11.7077L1.72965 17.0979L1.8302 17.4445L2.17613 17.344L4.17441 16.7302L4.52035 16.6296L4.40856 16.2949L4.20746 15.6136L7.00871 14.9885C7.86934 14.7938 8.65402 14.329 9.20738 13.616L9.34168 13.4487L10.6917 14.3972L10.9821 14.6095L11.1832 14.3079L17.6561 4.95564L17.8572 4.66525L17.5556 4.45291L12.5226 0.95978L12.2322 0.747437ZM12.4108 1.74095L16.8637 4.84384L14.3079 8.53806C14.6355 7.49322 14.1335 6.24165 13.0689 5.50197C13.0661 5.50056 13.0718 5.49283 13.0689 5.49142C13.0661 5.48861 13.0605 5.49353 13.0577 5.49142C12.4368 5.05337 11.6993 4.87056 11.0271 4.93314C10.6418 4.969 10.2804 5.09205 9.96676 5.29033L12.4108 1.74095ZM13.9064 3.86158C13.7109 3.86017 13.5225 3.9565 13.4036 4.12947C13.2145 4.4058 13.2841 4.77705 13.5604 4.96619C13.8368 5.15603 14.2186 5.08642 14.4084 4.81009C14.5982 4.53376 14.5286 4.16322 14.2523 3.97337C14.1489 3.90236 14.0231 3.86298 13.9064 3.86158ZM11.1164 5.63626C11.61 5.59126 12.1612 5.72697 12.645 6.0715L12.6562 6.08275C13.6673 6.77884 13.9689 7.95869 13.4599 8.69415H13.4486C13.192 9.09072 12.7638 9.30517 12.2322 9.33048C12.2505 8.92126 12.105 8.51415 11.7857 8.21462C11.7829 8.21181 11.7773 8.21744 11.7745 8.21462C11.2879 7.73298 10.5286 7.65212 9.96676 8.02478C9.62574 7.41236 9.60113 6.7465 9.93301 6.27259C10.1868 5.90556 10.6221 5.68056 11.1164 5.63626ZM8.22512 6.55103L6.51793 9.24119L6.32809 9.55337L6.64027 9.73197L7.77863 10.4133L7.99098 10.5469L8.19207 10.3795L9.99981 8.91775C10.0919 8.88822 10.1671 8.82423 10.2121 8.73915L10.3014 8.67165C10.5862 8.4347 11.0214 8.45439 11.2837 8.71665V8.7279H11.2943C11.5875 8.9958 11.6142 9.41416 11.3618 9.74322L8.64981 13.1695C8.20332 13.7433 7.56418 14.1349 6.85262 14.2967L4.00637 14.933L3.0023 11.5622L3.1141 11.5179L3.23645 11.4729L3.30324 11.3731L5.7923 7.5333C5.93293 7.33572 6.07848 7.21408 6.28379 7.13181C6.29152 7.129 6.29715 7.12337 6.30559 7.12056L8.22512 6.55103ZM9.04004 6.59603C8.90223 7.21689 9.04145 7.89048 9.39723 8.48181L7.93543 9.67642L7.3216 9.30798L9.04004 6.59603ZM13.5935 9.57587L10.8035 13.616L9.77691 12.8904L11.9193 10.1897V10.1785H11.9306C11.9643 10.1356 11.9925 10.0906 12.0199 10.0449C12.6007 10.0617 13.1596 9.91197 13.5935 9.57587ZM2.22113 11.4399L3.62738 16.1606L2.31043 16.5628L0.90418 11.8526L2.22113 11.4399Z" fill="#889DFC"/>
</svg>
