<svg width="30" height="30" viewBox="0 0 30 30" fill="none" xmlns="http://www.w3.org/2000/svg">
<path d="M3.60374 18.437H26.3958C26.6612 18.437 26.9035 18.286 27.02 18.047C27.136 17.8087 27.1059 17.5242 26.9424 17.3157L15.5455 2.76653C15.4138 2.59833 15.2127 2.5 14.9989 2.5C14.786 2.5 14.5841 2.59805 14.4529 2.76653L3.05769 17.3157C2.89363 17.5245 2.86352 17.8087 2.98008 18.047C3.09609 18.286 3.33831 18.437 3.60374 18.437ZM14.9992 4.31961L24.9712 17.0491H5.02894L14.9992 4.31961Z" fill="#FF5722"/>
<path d="M2.90979 26.8054C2.90979 27.189 3.22052 27.4998 3.60361 27.4998H26.2849C26.6685 27.4998 26.9793 27.189 26.9793 26.8054V21.6142C26.9793 21.2311 26.6685 20.9204 26.2849 20.9204H3.60361C3.22052 20.9204 2.90979 21.2311 2.90979 21.6142V26.8054ZM4.2977 22.3086H25.5911V26.1119H4.2977V22.3086Z" fill="#FF5722"/>
</svg>
