<svg width="129" height="107" viewBox="0 0 129 107" fill="none" xmlns="http://www.w3.org/2000/svg">
<rect x="0.5" y="0.5" width="128" height="106" rx="7.5" fill="white" stroke="#D8D8D8"/>
<path d="M64.9727 18.1543H60.6172V30H57.6875V18.1543H53.3906V15.7812H64.9727V18.1543ZM77.8054 18.5059C77.8054 19.6908 77.571 20.5697 77.1023 21.1426C76.64 21.709 75.9109 22.0443 74.9148 22.1484V30H72.2585L72.1804 28.9258C71.4838 29.7721 70.5202 30.1953 69.2898 30.1953C68.157 30.1953 67.2911 29.8698 66.6921 29.2188C66.0997 28.5677 65.7969 27.6139 65.7839 26.3574V19.4336H68.6062V26.2598C68.6062 27.36 69.1075 27.9102 70.1101 27.9102C71.0671 27.9102 71.7247 27.5781 72.0827 26.9141V19.4336H74.9148V20.791C75.3575 20.6934 75.6667 20.4915 75.8425 20.1855C76.0248 19.8796 76.1159 19.3197 76.1159 18.5059H77.8054ZM71.7995 18.2227H69.4851L66.7898 15.1953H69.8659L71.7995 18.2227Z" fill="#10ABFE"/>
<g filter="url(#filter0_d)">
<rect x="40" y="47" width="48" height="48" rx="8" fill="white"/>
<rect x="40.5" y="47.5" width="47" height="47" rx="7.5" stroke="#D8D8D8"/>
</g>
<path d="M54.5711 53C53.7906 53 53.1423 53.6469 53.1423 54.4288V55.8575H48.8575C48.0278 55.8575 47.4287 56.4566 47.4287 57.2863V62.2855H80.2857V57.2863C80.2857 56.4566 79.6853 55.8575 78.857 55.8575H74.5707V54.4288C74.5707 53.6469 73.9239 53 73.1434 53H71.7146C70.9328 53 70.2859 53.6469 70.2859 54.4288V55.8575H57.4286V54.4288C57.4286 53.6469 56.7817 53 55.9998 53H54.5711ZM54.5711 54.4288H55.9998V58.7136H54.5711V54.4288ZM71.7146 54.4288H73.1434V58.7136H71.7146V54.4288ZM47.4287 63.7142V85.857C47.4287 86.6853 48.0278 87.2858 48.8575 87.2858H78.857C79.6853 87.2858 80.2857 86.6853 80.2857 85.857V63.7142H47.4287ZM54.5711 68.0005H58.1429V71.5709H54.5711V68.0005ZM59.5717 68.0005H63.1421V71.5709H59.5717V68.0005ZM64.5709 68.0005H68.1428V71.5709H64.5709V68.0005ZM69.5715 68.0005H73.1434V71.5709H69.5715V68.0005ZM54.5711 72.9997H58.1429V76.5716H54.5711V72.9997ZM59.5717 72.9997H63.1421V76.5716H59.5717V72.9997ZM64.5709 72.9997H68.1428V76.5716H64.5709V72.9997ZM69.5715 72.9997H73.1434V76.5716H69.5715V72.9997ZM54.5711 78.0003H58.1429V81.5708H54.5711V78.0003ZM59.5717 78.0003H63.1421V81.5708H59.5717V78.0003ZM64.5709 78.0003H68.1428V81.5708H64.5709V78.0003ZM69.5715 78.0003H73.1434V81.5708H69.5715V78.0003Z" fill="#FF5722"/>
<defs>
<filter id="filter0_d" x="40" y="47" width="52" height="52" filterUnits="userSpaceOnUse" color-interpolation-filters="sRGB">
<feFlood flood-opacity="0" result="BackgroundImageFix"/>
<feColorMatrix in="SourceAlpha" type="matrix" values="0 0 0 0 0 0 0 0 0 0 0 0 0 0 0 0 0 0 127 0"/>
<feOffset dx="2" dy="2"/>
<feGaussianBlur stdDeviation="1"/>
<feColorMatrix type="matrix" values="0 0 0 0 0 0 0 0 0 0 0 0 0 0 0 0 0 0 0.25 0"/>
<feBlend mode="normal" in2="BackgroundImageFix" result="effect1_dropShadow"/>
<feBlend mode="normal" in="SourceGraphic" in2="effect1_dropShadow" result="shape"/>
</filter>
</defs>
</svg>
