<svg width="129" height="107" viewBox="0 0 129 107" fill="none" xmlns="http://www.w3.org/2000/svg">
<rect x="0.5" y="0.5" width="128" height="106" rx="7.5" fill="white" stroke="#D8D8D8"/>
<path d="M56.218 30H53.2884L47.5852 20.6445V30H44.6555V15.7812H47.5852L53.2981 25.1562V15.7812H56.218V30ZM64.7441 30C64.6139 29.7461 64.5195 29.4303 64.4609 29.0527C63.7773 29.8145 62.8887 30.1953 61.7949 30.1953C60.7598 30.1953 59.9004 29.8958 59.2168 29.2969C58.5397 28.6979 58.2012 27.9427 58.2012 27.0312C58.2012 25.9115 58.6146 25.0521 59.4414 24.4531C60.2747 23.8542 61.4759 23.5514 63.0449 23.5449H64.3437V22.9395C64.3437 22.4512 64.2168 22.0605 63.9629 21.7676C63.7155 21.4746 63.3216 21.3281 62.7812 21.3281C62.306 21.3281 61.9316 21.4421 61.6582 21.6699C61.3913 21.8978 61.2578 22.2103 61.2578 22.6074H58.4355C58.4355 21.9954 58.6243 21.429 59.002 20.9082C59.3796 20.3874 59.9134 19.9805 60.6035 19.6875C61.2936 19.388 62.0684 19.2383 62.9277 19.2383C64.2298 19.2383 65.2617 19.5671 66.0234 20.2246C66.7917 20.8757 67.1758 21.7936 67.1758 22.9785V27.5586C67.1823 28.5612 67.3223 29.3197 67.5957 29.834V30H64.7441ZM62.4102 28.0371C62.8268 28.0371 63.2109 27.946 63.5625 27.7637C63.9141 27.5749 64.1745 27.3242 64.3437 27.0117V25.1953H63.2891C61.8763 25.1953 61.1243 25.6836 61.0332 26.6602L61.0234 26.8262C61.0234 27.1777 61.1471 27.4674 61.3945 27.6953C61.6419 27.9232 61.9805 28.0371 62.4102 28.0371ZM66.3066 15.0977C66.3066 15.9635 65.9941 16.6634 65.3691 17.1973C64.7507 17.7311 63.9368 17.998 62.9277 17.998C61.9186 17.998 61.1016 17.7344 60.4766 17.207C59.8581 16.6797 59.5488 15.9766 59.5488 15.0977H61.5508C61.5508 15.5078 61.6712 15.8268 61.9121 16.0547C62.1595 16.276 62.498 16.3867 62.9277 16.3867C63.3509 16.3867 63.6829 16.276 63.9238 16.0547C64.1647 15.8268 64.2852 15.5078 64.2852 15.0977H66.3066ZM72.0202 19.4336L72.1081 20.6152C72.8568 19.6973 73.8692 19.2383 75.1452 19.2383C76.5059 19.2383 77.4402 19.7754 77.948 20.8496C78.6902 19.7754 79.7481 19.2383 81.1218 19.2383C82.2676 19.2383 83.1205 19.5736 83.6804 20.2441C84.2403 20.9082 84.5202 21.9108 84.5202 23.252V30H81.6882V23.2617C81.6882 22.6628 81.571 22.2266 81.3366 21.9531C81.1023 21.6732 80.6889 21.5332 80.0964 21.5332C79.2501 21.5332 78.6641 21.9368 78.3386 22.7441L78.3484 30H75.5261V23.2715C75.5261 22.6595 75.4056 22.2168 75.1648 21.9434C74.9239 21.6699 74.5137 21.5332 73.9343 21.5332C73.1335 21.5332 72.5541 21.8652 72.196 22.5293V30H69.3737V19.4336H72.0202Z" fill="#10ABFE"/>
<g filter="url(#filter0_d)">
<rect x="40" y="47" width="48" height="48" rx="8" fill="white"/>
<rect x="40.5" y="47.5" width="47" height="47" rx="7.5" stroke="#D8D8D8"/>
</g>
<path d="M54.5711 53C53.7906 53 53.1423 53.6469 53.1423 54.4288V55.8575H48.8575C48.0278 55.8575 47.4287 56.4566 47.4287 57.2863V62.2855H80.2857V57.2863C80.2857 56.4566 79.6853 55.8575 78.857 55.8575H74.5707V54.4288C74.5707 53.6469 73.9239 53 73.1434 53H71.7146C70.9328 53 70.2859 53.6469 70.2859 54.4288V55.8575H57.4286V54.4288C57.4286 53.6469 56.7817 53 55.9998 53H54.5711ZM54.5711 54.4288H55.9998V58.7136H54.5711V54.4288ZM71.7146 54.4288H73.1434V58.7136H71.7146V54.4288ZM47.4287 63.7142V85.857C47.4287 86.6853 48.0278 87.2858 48.8575 87.2858H78.857C79.6853 87.2858 80.2857 86.6853 80.2857 85.857V63.7142H47.4287ZM54.5711 68.0005H58.1429V71.5709H54.5711V68.0005ZM59.5717 68.0005H63.1421V71.5709H59.5717V68.0005ZM64.5709 68.0005H68.1428V71.5709H64.5709V68.0005ZM69.5715 68.0005H73.1434V71.5709H69.5715V68.0005ZM54.5711 72.9997H58.1429V76.5716H54.5711V72.9997ZM59.5717 72.9997H63.1421V76.5716H59.5717V72.9997ZM64.5709 72.9997H68.1428V76.5716H64.5709V72.9997ZM69.5715 72.9997H73.1434V76.5716H69.5715V72.9997ZM54.5711 78.0003H58.1429V81.5708H54.5711V78.0003ZM59.5717 78.0003H63.1421V81.5708H59.5717V78.0003ZM64.5709 78.0003H68.1428V81.5708H64.5709V78.0003ZM69.5715 78.0003H73.1434V81.5708H69.5715V78.0003Z" fill="#FF5722"/>
<defs>
<filter id="filter0_d" x="40" y="47" width="52" height="52" filterUnits="userSpaceOnUse" color-interpolation-filters="sRGB">
<feFlood flood-opacity="0" result="BackgroundImageFix"/>
<feColorMatrix in="SourceAlpha" type="matrix" values="0 0 0 0 0 0 0 0 0 0 0 0 0 0 0 0 0 0 127 0"/>
<feOffset dx="2" dy="2"/>
<feGaussianBlur stdDeviation="1"/>
<feColorMatrix type="matrix" values="0 0 0 0 0 0 0 0 0 0 0 0 0 0 0 0 0 0 0.25 0"/>
<feBlend mode="normal" in2="BackgroundImageFix" result="effect1_dropShadow"/>
<feBlend mode="normal" in="SourceGraphic" in2="effect1_dropShadow" result="shape"/>
</filter>
</defs>
</svg>
