<svg width="18" height="18" viewBox="0 0 18 18" fill="none" xmlns="http://www.w3.org/2000/svg">
<path d="M5.89307 1.07153C5.20682 1.07153 4.64291 1.63474 4.64291 2.32169V9.64263H4.46432C4.169 9.64263 3.92853 9.8831 3.92853 10.1784C3.92853 10.4744 4.169 10.7142 4.46432 10.7142H13.3933C13.6886 10.7142 13.9291 10.4744 13.9291 10.1784C13.9291 9.8831 13.6886 9.64263 13.3933 9.64263H13.2147V2.32169C13.2147 1.63474 12.6508 1.07153 11.9646 1.07153H5.89307ZM5.89307 1.78591H6.42885V9.99981H5.35729V2.32169C5.35729 2.02146 5.59283 1.78591 5.89307 1.78591ZM7.50041 1.78591H11.9646C12.2641 1.78591 12.5003 2.02146 12.5003 2.32169V9.99981H7.50041V1.78591ZM1.78611 3.92833C1.1983 3.92833 0.714551 4.41278 0.714551 4.99989V12.7455C0.693457 12.8151 0.693457 12.8875 0.714551 12.9579V13.5717C0.714551 14.1588 1.1983 14.6425 1.78611 14.6425H6.71924L6.48439 16.0713H5.71447C5.70322 16.0713 5.69197 16.0713 5.68072 16.0713C5.48455 16.0811 5.33057 16.2485 5.34041 16.4454C5.35025 16.6422 5.5176 16.7955 5.71447 16.7857H12.1431C12.2711 16.7871 12.3913 16.7203 12.4567 16.6085C12.5214 16.4967 12.5214 16.3603 12.4567 16.2485C12.3913 16.1367 12.2711 16.0699 12.1431 16.0713H11.3732L11.1384 14.6425H16.0715C16.6586 14.6425 17.1431 14.1588 17.1431 13.5717V12.9241C17.1529 12.8763 17.1529 12.8264 17.1431 12.7793V4.99989C17.1431 4.41278 16.6586 3.92833 16.0715 3.92833H13.5719V4.6427H16.0715C16.274 4.6427 16.4287 4.79739 16.4287 4.99989V12.5001H1.42893V4.99989C1.42893 4.79739 1.58361 4.6427 1.78611 4.6427H4.28572V3.92833H1.78611ZM1.42893 13.2145H16.4287V13.5717C16.4287 13.7735 16.274 13.9289 16.0715 13.9289H1.78611C1.58361 13.9289 1.42893 13.7735 1.42893 13.5717V13.2145ZM7.45541 14.6425H10.4022L10.6476 16.0713H7.21002L7.45541 14.6425Z" fill="#889DFC"/>
</svg>
