<svg width="171" height="44" viewBox="0 0 171 44" fill="none" xmlns="http://www.w3.org/2000/svg">
<g filter="url(#filter0_d)">
<rect width="167" height="40" rx="20" fill="#FF5722"/>
</g>
<path d="M47.4473 16.8926H44.834V24H43.0762V16.8926H40.498V15.4688H47.4473V16.8926ZM49.9961 18.3516C50.4453 17.8125 51.0098 17.543 51.6895 17.543C53.0645 17.543 53.7617 18.3418 53.7812 19.9395V24H52.0879V19.9863C52.0879 19.623 52.0098 19.3555 51.8535 19.1836C51.6973 19.0078 51.4375 18.9199 51.0742 18.9199C50.5781 18.9199 50.2188 19.1113 49.9961 19.4941V24H48.3027V15H49.9961V18.3516ZM54.7949 20.7715C54.7949 20.1426 54.916 19.582 55.1582 19.0898C55.4004 18.5977 55.748 18.2168 56.2012 17.9473C56.6582 17.6777 57.1875 17.543 57.7891 17.543C58.6445 17.543 59.3418 17.8047 59.8809 18.3281C60.4238 18.8516 60.7266 19.5625 60.7891 20.4609L60.8008 20.8945C60.8008 21.8672 60.5293 22.6484 59.9863 23.2383C59.4434 23.8242 58.7148 24.1172 57.8008 24.1172C56.8867 24.1172 56.1562 23.8242 55.6094 23.2383C55.0664 22.6523 54.7949 21.8555 54.7949 20.8477V20.7715ZM56.4883 20.8945C56.4883 21.4961 56.6016 21.957 56.8281 22.2773C57.0547 22.5938 57.3789 22.752 57.8008 22.752C58.2109 22.752 58.5312 22.5957 58.7617 22.2832C58.9922 21.9668 59.1074 21.4629 59.1074 20.7715C59.1074 20.1816 58.9922 19.7246 58.7617 19.4004C58.5312 19.0762 58.207 18.9141 57.7891 18.9141C57.375 18.9141 57.0547 19.0762 56.8281 19.4004C56.6016 19.7207 56.4883 20.2188 56.4883 20.8945ZM65.5176 24C65.4395 23.8477 65.3828 23.6582 65.3477 23.4316C64.9375 23.8887 64.4043 24.1172 63.748 24.1172C63.127 24.1172 62.6113 23.9375 62.2012 23.5781C61.7949 23.2188 61.5918 22.7656 61.5918 22.2188C61.5918 21.5469 61.8398 21.0312 62.3359 20.6719C62.8359 20.3125 63.5566 20.1309 64.498 20.127H65.2773V19.7637C65.2773 19.4707 65.2012 19.2363 65.0488 19.0605C64.9004 18.8848 64.6641 18.7969 64.3398 18.7969C64.0547 18.7969 63.8301 18.8652 63.666 19.002C63.5059 19.1387 63.4258 19.3262 63.4258 19.5645H61.7324C61.7324 19.1973 61.8457 18.8574 62.0723 18.5449C62.2988 18.2324 62.6191 17.9883 63.0332 17.8125C63.4473 17.6328 63.9121 17.543 64.4277 17.543C65.209 17.543 65.8281 17.7402 66.2852 18.1348C66.7461 18.5254 66.9766 19.0762 66.9766 19.7871V22.5352C66.9805 23.1367 67.0645 23.5918 67.2285 23.9004V24H65.5176ZM64.1172 22.8223C64.3672 22.8223 64.5977 22.7676 64.8086 22.6582C65.0195 22.5449 65.1758 22.3945 65.2773 22.207V21.1172H64.6445C63.7969 21.1172 63.3457 21.4102 63.291 21.9961L63.2852 22.0957C63.2852 22.3066 63.3594 22.4805 63.5078 22.6172C63.6562 22.7539 63.8594 22.8223 64.1172 22.8223ZM64.7617 15H66.6074L64.9844 16.8164H63.6074L64.7617 15ZM70.3047 16.1016V17.6602H71.3887V18.9023H70.3047V22.0664C70.3047 22.3008 70.3496 22.4688 70.4395 22.5703C70.5293 22.6719 70.7012 22.7227 70.9551 22.7227C71.1426 22.7227 71.3086 22.709 71.4531 22.6816V23.9648C71.1211 24.0664 70.7793 24.1172 70.4277 24.1172C69.2402 24.1172 68.6348 23.5176 68.6113 22.3184V18.9023H67.6855V17.6602H68.6113V16.1016H70.3047ZM76.8789 17.6602L76.9316 18.3926C77.3848 17.8262 77.9922 17.543 78.7539 17.543C79.4258 17.543 79.9258 17.7402 80.2539 18.1348C80.582 18.5293 80.75 19.1191 80.7578 19.9043V24H79.0645V19.9453C79.0645 19.5859 78.9863 19.3262 78.8301 19.166C78.6738 19.002 78.4141 18.9199 78.0508 18.9199C77.5742 18.9199 77.2168 19.123 76.9785 19.5293V24H75.2852V17.6602H76.8789ZM83.6992 18.3516C84.1484 17.8125 84.7129 17.543 85.3926 17.543C86.7676 17.543 87.4648 18.3418 87.4844 19.9395V24H85.791V19.9863C85.791 19.623 85.7129 19.3555 85.5566 19.1836C85.4004 19.0078 85.1406 18.9199 84.7773 18.9199C84.2812 18.9199 83.9219 19.1113 83.6992 19.4941V24H82.0059V15H83.6992V18.3516ZM92.4355 24C92.3574 23.8477 92.3008 23.6582 92.2656 23.4316C91.8555 23.8887 91.3223 24.1172 90.666 24.1172C90.0449 24.1172 89.5293 23.9375 89.1191 23.5781C88.7129 23.2188 88.5098 22.7656 88.5098 22.2188C88.5098 21.5469 88.7578 21.0312 89.2539 20.6719C89.7539 20.3125 90.4746 20.1309 91.416 20.127H92.1953V19.7637C92.1953 19.4707 92.1191 19.2363 91.9668 19.0605C91.8184 18.8848 91.582 18.7969 91.2578 18.7969C90.9727 18.7969 90.748 18.8652 90.584 19.002C90.4238 19.1387 90.3438 19.3262 90.3438 19.5645H88.6504C88.6504 19.1973 88.7637 18.8574 88.9902 18.5449C89.2168 18.2324 89.5371 17.9883 89.9512 17.8125C90.3652 17.6328 90.8301 17.543 91.3457 17.543C92.127 17.543 92.7461 17.7402 93.2031 18.1348C93.6641 18.5254 93.8945 19.0762 93.8945 19.7871V22.5352C93.8984 23.1367 93.9824 23.5918 94.1465 23.9004V24H92.4355ZM91.0352 22.8223C91.2852 22.8223 91.5156 22.7676 91.7266 22.6582C91.9375 22.5449 92.0938 22.3945 92.1953 22.207V21.1172H91.5625C90.7148 21.1172 90.2637 21.4102 90.209 21.9961L90.2031 22.0957C90.2031 22.3066 90.2773 22.4805 90.4258 22.6172C90.5742 22.7539 90.7773 22.8223 91.0352 22.8223ZM93.5898 16.6406V16.7109H92.2422L91.3398 15.8613L90.4375 16.7109H89.1133V16.6172L90.8477 15H91.832L93.5898 16.6406ZM96.7539 17.6602L96.8066 18.3926C97.2598 17.8262 97.8672 17.543 98.6289 17.543C99.3008 17.543 99.8008 17.7402 100.129 18.1348C100.457 18.5293 100.625 19.1191 100.633 19.9043V24H98.9395V19.9453C98.9395 19.5859 98.8613 19.3262 98.7051 19.166C98.5488 19.002 98.2891 18.9199 97.9258 18.9199C97.4492 18.9199 97.0918 19.123 96.8535 19.5293V24H95.1602V17.6602H96.7539ZM107.283 21.9316L108.461 17.6602H110.23L108.092 24H106.475L104.336 17.6602H106.105L107.283 21.9316ZM112.768 24H111.068V17.6602H112.768V24ZM110.969 16.0195C110.969 15.7656 111.053 15.5566 111.221 15.3926C111.393 15.2285 111.625 15.1465 111.918 15.1465C112.207 15.1465 112.438 15.2285 112.609 15.3926C112.781 15.5566 112.867 15.7656 112.867 16.0195C112.867 16.2773 112.779 16.4883 112.604 16.6523C112.432 16.8164 112.203 16.8984 111.918 16.8984C111.633 16.8984 111.402 16.8164 111.227 16.6523C111.055 16.4883 110.969 16.2773 110.969 16.0195ZM117.086 24.1172C116.156 24.1172 115.398 23.832 114.812 23.2617C114.23 22.6914 113.939 21.9316 113.939 20.9824V20.8184C113.939 20.1816 114.062 19.6133 114.309 19.1133C114.555 18.6094 114.902 18.2227 115.352 17.9531C115.805 17.6797 116.32 17.543 116.898 17.543C117.766 17.543 118.447 17.8164 118.943 18.3633C119.443 18.9102 119.693 19.6855 119.693 20.6895V21.3809H115.656C115.711 21.7949 115.875 22.127 116.148 22.377C116.426 22.627 116.775 22.752 117.197 22.752C117.85 22.752 118.359 22.5156 118.727 22.043L119.559 22.9746C119.305 23.334 118.961 23.6152 118.527 23.8184C118.094 24.0176 117.613 24.1172 117.086 24.1172ZM116.893 18.9141C116.557 18.9141 116.283 19.0273 116.072 19.2539C115.865 19.4805 115.732 19.8047 115.674 20.2266H118.029V20.0918C118.021 19.7168 117.92 19.4277 117.725 19.2246C117.529 19.0176 117.252 18.9141 116.893 18.9141ZM118.955 16.6406V16.7109H117.607L116.705 15.8613L115.803 16.7109H114.479V16.6172L116.213 15H117.197L118.955 16.6406ZM122.219 17.6602L122.271 18.3926C122.725 17.8262 123.332 17.543 124.094 17.543C124.766 17.543 125.266 17.7402 125.594 18.1348C125.922 18.5293 126.09 19.1191 126.098 19.9043V24H124.404V19.9453C124.404 19.5859 124.326 19.3262 124.17 19.166C124.014 19.002 123.754 18.9199 123.391 18.9199C122.914 18.9199 122.557 19.123 122.318 19.5293V24H120.625V17.6602H122.219Z" fill="white"/>
<defs>
<filter id="filter0_d" x="0" y="0" width="171" height="44" filterUnits="userSpaceOnUse" color-interpolation-filters="sRGB">
<feFlood flood-opacity="0" result="BackgroundImageFix"/>
<feColorMatrix in="SourceAlpha" type="matrix" values="0 0 0 0 0 0 0 0 0 0 0 0 0 0 0 0 0 0 127 0"/>
<feOffset dx="2" dy="2"/>
<feGaussianBlur stdDeviation="1"/>
<feColorMatrix type="matrix" values="0 0 0 0 0 0 0 0 0 0 0 0 0 0 0 0 0 0 0.25 0"/>
<feBlend mode="normal" in2="BackgroundImageFix" result="effect1_dropShadow"/>
<feBlend mode="normal" in="SourceGraphic" in2="effect1_dropShadow" result="shape"/>
</filter>
</defs>
</svg>
