<svg width="171" height="44" viewBox="0 0 171 44" fill="none" xmlns="http://www.w3.org/2000/svg">
<g filter="url(#filter0_d)">
<rect width="167" height="40" rx="20" fill="#FF5722"/>
</g>
<path d="M42.3555 16.8926H39.7422V24H37.9844V16.8926H35.4062V15.4688H42.3555V16.8926ZM44.9043 18.3516C45.3535 17.8125 45.918 17.543 46.5977 17.543C47.9727 17.543 48.6699 18.3418 48.6895 19.9395V24H46.9961V19.9863C46.9961 19.623 46.918 19.3555 46.7617 19.1836C46.6055 19.0078 46.3457 18.9199 45.9824 18.9199C45.4863 18.9199 45.127 19.1113 44.9043 19.4941V24H43.2109V15H44.9043V18.3516ZM49.7031 20.7715C49.7031 20.1426 49.8242 19.582 50.0664 19.0898C50.3086 18.5977 50.6562 18.2168 51.1094 17.9473C51.5664 17.6777 52.0957 17.543 52.6973 17.543C53.5527 17.543 54.25 17.8047 54.7891 18.3281C55.332 18.8516 55.6348 19.5625 55.6973 20.4609L55.709 20.8945C55.709 21.8672 55.4375 22.6484 54.8945 23.2383C54.3516 23.8242 53.623 24.1172 52.709 24.1172C51.7949 24.1172 51.0645 23.8242 50.5176 23.2383C49.9746 22.6523 49.7031 21.8555 49.7031 20.8477V20.7715ZM51.3965 20.8945C51.3965 21.4961 51.5098 21.957 51.7363 22.2773C51.9629 22.5938 52.2871 22.752 52.709 22.752C53.1191 22.752 53.4395 22.5957 53.6699 22.2832C53.9004 21.9668 54.0156 21.4629 54.0156 20.7715C54.0156 20.1816 53.9004 19.7246 53.6699 19.4004C53.4395 19.0762 53.1152 18.9141 52.6973 18.9141C52.2832 18.9141 51.9629 19.0762 51.7363 19.4004C51.5098 19.7207 51.3965 20.2188 51.3965 20.8945ZM60.4258 24C60.3477 23.8477 60.291 23.6582 60.2559 23.4316C59.8457 23.8887 59.3125 24.1172 58.6562 24.1172C58.0352 24.1172 57.5195 23.9375 57.1094 23.5781C56.7031 23.2188 56.5 22.7656 56.5 22.2188C56.5 21.5469 56.748 21.0312 57.2441 20.6719C57.7441 20.3125 58.4648 20.1309 59.4062 20.127H60.1855V19.7637C60.1855 19.4707 60.1094 19.2363 59.957 19.0605C59.8086 18.8848 59.5723 18.7969 59.248 18.7969C58.9629 18.7969 58.7383 18.8652 58.5742 19.002C58.4141 19.1387 58.334 19.3262 58.334 19.5645H56.6406C56.6406 19.1973 56.7539 18.8574 56.9805 18.5449C57.207 18.2324 57.5273 17.9883 57.9414 17.8125C58.3555 17.6328 58.8203 17.543 59.3359 17.543C60.1172 17.543 60.7363 17.7402 61.1934 18.1348C61.6543 18.5254 61.8848 19.0762 61.8848 19.7871V22.5352C61.8887 23.1367 61.9727 23.5918 62.1367 23.9004V24H60.4258ZM59.0254 22.8223C59.2754 22.8223 59.5059 22.7676 59.7168 22.6582C59.9277 22.5449 60.084 22.3945 60.1855 22.207V21.1172H59.5527C58.7051 21.1172 58.2539 21.4102 58.1992 21.9961L58.1934 22.0957C58.1934 22.3066 58.2676 22.4805 58.416 22.6172C58.5645 22.7539 58.7676 22.8223 59.0254 22.8223ZM59.6699 15H61.5156L59.8926 16.8164H58.5156L59.6699 15ZM65.2129 16.1016V17.6602H66.2969V18.9023H65.2129V22.0664C65.2129 22.3008 65.2578 22.4688 65.3477 22.5703C65.4375 22.6719 65.6094 22.7227 65.8633 22.7227C66.0508 22.7227 66.2168 22.709 66.3613 22.6816V23.9648C66.0293 24.0664 65.6875 24.1172 65.3359 24.1172C64.1484 24.1172 63.543 23.5176 63.5195 22.3184V18.9023H62.5938V17.6602H63.5195V16.1016H65.2129ZM72.5312 21.457L71.9219 22.0664V24H70.2285V15H71.9219V19.9863L72.25 19.5645L73.873 17.6602H75.9062L73.6152 20.3027L76.1055 24H74.1602L72.5312 21.457ZM78.291 18.3516C78.7402 17.8125 79.3047 17.543 79.9844 17.543C81.3594 17.543 82.0566 18.3418 82.0762 19.9395V24H80.3828V19.9863C80.3828 19.623 80.3047 19.3555 80.1484 19.1836C79.9922 19.0078 79.7324 18.9199 79.3691 18.9199C78.873 18.9199 78.5137 19.1113 78.291 19.4941V24H76.5977V15H78.291V18.3516ZM87.0273 24C86.9492 23.8477 86.8926 23.6582 86.8574 23.4316C86.4473 23.8887 85.9141 24.1172 85.2578 24.1172C84.6367 24.1172 84.1211 23.9375 83.7109 23.5781C83.3047 23.2188 83.1016 22.7656 83.1016 22.2188C83.1016 21.5469 83.3496 21.0312 83.8457 20.6719C84.3457 20.3125 85.0664 20.1309 86.0078 20.127H86.7871V19.7637C86.7871 19.4707 86.7109 19.2363 86.5586 19.0605C86.4102 18.8848 86.1738 18.7969 85.8496 18.7969C85.5645 18.7969 85.3398 18.8652 85.1758 19.002C85.0156 19.1387 84.9355 19.3262 84.9355 19.5645H83.2422C83.2422 19.1973 83.3555 18.8574 83.582 18.5449C83.8086 18.2324 84.1289 17.9883 84.543 17.8125C84.957 17.6328 85.4219 17.543 85.9375 17.543C86.7188 17.543 87.3379 17.7402 87.7949 18.1348C88.2559 18.5254 88.4863 19.0762 88.4863 19.7871V22.5352C88.4902 23.1367 88.5742 23.5918 88.7383 23.9004V24H87.0273ZM85.627 22.8223C85.877 22.8223 86.1074 22.7676 86.3184 22.6582C86.5293 22.5449 86.6855 22.3945 86.7871 22.207V21.1172H86.1543C85.3066 21.1172 84.8555 21.4102 84.8008 21.9961L84.7949 22.0957C84.7949 22.3066 84.8691 22.4805 85.0176 22.6172C85.166 22.7539 85.3691 22.8223 85.627 22.8223ZM86.2715 15H88.1172L86.4941 16.8164H85.1172L86.2715 15ZM92.4238 22.752C92.7363 22.752 92.9902 22.666 93.1855 22.4941C93.3809 22.3223 93.4824 22.0938 93.4902 21.8086H95.0781C95.0742 22.2383 94.957 22.6328 94.7266 22.9922C94.4961 23.3477 94.1797 23.625 93.7773 23.8242C93.3789 24.0195 92.9375 24.1172 92.4531 24.1172C91.5469 24.1172 90.832 23.8301 90.3086 23.2559C89.7852 22.6777 89.5234 21.8809 89.5234 20.8652V20.7539C89.5234 19.7773 89.7832 18.998 90.3027 18.416C90.8223 17.834 91.5352 17.543 92.4414 17.543C93.2344 17.543 93.8691 17.7695 94.3457 18.2227C94.8262 18.6719 95.0703 19.2715 95.0781 20.0215H93.4902C93.4824 19.6934 93.3809 19.4277 93.1855 19.2246C92.9902 19.0176 92.7324 18.9141 92.4121 18.9141C92.0176 18.9141 91.7188 19.0586 91.5156 19.3477C91.3164 19.6328 91.2168 20.0977 91.2168 20.7422V20.918C91.2168 21.5703 91.3164 22.0391 91.5156 22.3242C91.7148 22.6094 92.0176 22.752 92.4238 22.752ZM97.6973 18.3516C98.1465 17.8125 98.7109 17.543 99.3906 17.543C100.766 17.543 101.463 18.3418 101.482 19.9395V24H99.7891V19.9863C99.7891 19.623 99.7109 19.3555 99.5547 19.1836C99.3984 19.0078 99.1387 18.9199 98.7754 18.9199C98.2793 18.9199 97.9199 19.1113 97.6973 19.4941V24H96.0039V15H97.6973V18.3516ZM107.4 18.3516C107.85 17.8125 108.414 17.543 109.094 17.543C110.469 17.543 111.166 18.3418 111.186 19.9395V24H109.492V19.9863C109.492 19.623 109.414 19.3555 109.258 19.1836C109.102 19.0078 108.842 18.9199 108.479 18.9199C107.982 18.9199 107.623 19.1113 107.4 19.4941V24H105.707V15H107.4V18.3516ZM116.137 24C116.059 23.8477 116.002 23.6582 115.967 23.4316C115.557 23.8887 115.023 24.1172 114.367 24.1172C113.746 24.1172 113.23 23.9375 112.82 23.5781C112.414 23.2188 112.211 22.7656 112.211 22.2188C112.211 21.5469 112.459 21.0312 112.955 20.6719C113.455 20.3125 114.176 20.1309 115.117 20.127H115.896V19.7637C115.896 19.4707 115.82 19.2363 115.668 19.0605C115.52 18.8848 115.283 18.7969 114.959 18.7969C114.674 18.7969 114.449 18.8652 114.285 19.002C114.125 19.1387 114.045 19.3262 114.045 19.5645H112.352C112.352 19.1973 112.465 18.8574 112.691 18.5449C112.918 18.2324 113.238 17.9883 113.652 17.8125C114.066 17.6328 114.531 17.543 115.047 17.543C115.828 17.543 116.447 17.7402 116.904 18.1348C117.365 18.5254 117.596 19.0762 117.596 19.7871V22.5352C117.6 23.1367 117.684 23.5918 117.848 23.9004V24H116.137ZM114.736 22.8223C114.986 22.8223 115.217 22.7676 115.428 22.6582C115.639 22.5449 115.795 22.3945 115.896 22.207V21.1172H115.264C114.416 21.1172 113.965 21.4102 113.91 21.9961L113.904 22.0957C113.904 22.3066 113.979 22.4805 114.127 22.6172C114.275 22.7539 114.479 22.8223 114.736 22.8223ZM115.885 16.8164H114.496L112.879 15H114.725L115.885 16.8164ZM120.455 17.6602L120.508 18.3926C120.961 17.8262 121.568 17.543 122.33 17.543C123.002 17.543 123.502 17.7402 123.83 18.1348C124.158 18.5293 124.326 19.1191 124.334 19.9043V24H122.641V19.9453C122.641 19.5859 122.562 19.3262 122.406 19.166C122.25 19.002 121.99 18.9199 121.627 18.9199C121.15 18.9199 120.793 19.123 120.555 19.5293V24H118.861V17.6602H120.455ZM125.377 20.7832C125.377 19.8105 125.607 19.0273 126.068 18.4336C126.533 17.8398 127.158 17.543 127.943 17.543C128.639 17.543 129.18 17.7812 129.566 18.2578L129.637 17.6602H131.172V23.7891C131.172 24.3438 131.045 24.8262 130.791 25.2363C130.541 25.6465 130.188 25.959 129.73 26.1738C129.273 26.3887 128.738 26.4961 128.125 26.4961C127.66 26.4961 127.207 26.4023 126.766 26.2148C126.324 26.0312 125.99 25.793 125.764 25.5L126.514 24.4688C126.936 24.9414 127.447 25.1777 128.049 25.1777C128.498 25.1777 128.848 25.0566 129.098 24.8145C129.348 24.5762 129.473 24.2363 129.473 23.7949V23.4551C129.082 23.8965 128.568 24.1172 127.932 24.1172C127.17 24.1172 126.553 23.8203 126.08 23.2266C125.611 22.6289 125.377 21.8379 125.377 20.8535V20.7832ZM127.07 20.9062C127.07 21.4805 127.186 21.9316 127.416 22.2598C127.646 22.584 127.963 22.7461 128.365 22.7461C128.881 22.7461 129.25 22.5527 129.473 22.166V19.5C129.246 19.1133 128.881 18.9199 128.377 18.9199C127.971 18.9199 127.65 19.0859 127.416 19.418C127.186 19.75 127.07 20.2461 127.07 20.9062Z" fill="white"/>
<defs>
<filter id="filter0_d" x="0" y="0" width="171" height="44" filterUnits="userSpaceOnUse" color-interpolation-filters="sRGB">
<feFlood flood-opacity="0" result="BackgroundImageFix"/>
<feColorMatrix in="SourceAlpha" type="matrix" values="0 0 0 0 0 0 0 0 0 0 0 0 0 0 0 0 0 0 127 0"/>
<feOffset dx="2" dy="2"/>
<feGaussianBlur stdDeviation="1"/>
<feColorMatrix type="matrix" values="0 0 0 0 0 0 0 0 0 0 0 0 0 0 0 0 0 0 0.25 0"/>
<feBlend mode="normal" in2="BackgroundImageFix" result="effect1_dropShadow"/>
<feBlend mode="normal" in="SourceGraphic" in2="effect1_dropShadow" result="shape"/>
</filter>
</defs>
</svg>
