<svg width="231" height="15" viewBox="0 0 231 15" fill="none" xmlns="http://www.w3.org/2000/svg">
<path d="M8.03223 3.12695H4.83301V12H3.52734V3.12695H0.334961V2.04688H8.03223V3.12695ZM10.5752 5.49902C11.1357 4.81087 11.8649 4.4668 12.7627 4.4668C14.3258 4.4668 15.1143 5.34863 15.1279 7.1123V12H13.8633V7.10547C13.8587 6.57227 13.7357 6.17806 13.4941 5.92285C13.2572 5.66764 12.8857 5.54004 12.3799 5.54004C11.9697 5.54004 11.6097 5.64941 11.2998 5.86816C10.9899 6.08691 10.7484 6.37402 10.5752 6.72949V12H9.31055V1.5H10.5752V5.49902ZM21.5879 12C21.515 11.8542 21.4557 11.5944 21.4102 11.2207C20.8223 11.8314 20.1204 12.1367 19.3047 12.1367C18.5755 12.1367 17.9762 11.9316 17.5068 11.5215C17.042 11.1068 16.8096 10.5827 16.8096 9.94922C16.8096 9.17904 17.1012 8.58203 17.6846 8.1582C18.2725 7.72982 19.0973 7.51562 20.1592 7.51562H21.3896V6.93457C21.3896 6.49251 21.2575 6.1416 20.9932 5.88184C20.7288 5.61751 20.3392 5.48535 19.8242 5.48535C19.373 5.48535 18.9948 5.59928 18.6895 5.82715C18.3841 6.05501 18.2314 6.33073 18.2314 6.6543H16.96C16.96 6.28516 17.0898 5.92969 17.3496 5.58789C17.6139 5.24154 17.9694 4.9681 18.416 4.76758C18.8672 4.56706 19.3617 4.4668 19.8994 4.4668C20.7516 4.4668 21.4193 4.68099 21.9023 5.10938C22.3854 5.5332 22.6361 6.11882 22.6543 6.86621V10.2705C22.6543 10.9495 22.7409 11.4896 22.9141 11.8906V12H21.5879ZM19.4893 11.0361C19.8857 11.0361 20.2617 10.9336 20.6172 10.7285C20.9727 10.5234 21.2301 10.2568 21.3896 9.92871V8.41113H20.3984C18.849 8.41113 18.0742 8.86458 18.0742 9.77148C18.0742 10.168 18.2064 10.4779 18.4707 10.7012C18.735 10.9245 19.0745 11.0361 19.4893 11.0361ZM25.833 4.60352L25.874 5.5332C26.4391 4.82227 27.1774 4.4668 28.0889 4.4668C29.652 4.4668 30.4404 5.34863 30.4541 7.1123V12H29.1895V7.10547C29.1849 6.57227 29.0618 6.17806 28.8203 5.92285C28.5833 5.66764 28.2119 5.54004 27.7061 5.54004C27.2959 5.54004 26.9359 5.64941 26.626 5.86816C26.3161 6.08691 26.0745 6.37402 25.9014 6.72949V12H24.6367V4.60352H25.833ZM33.626 5.49902C34.1865 4.81087 34.9157 4.4668 35.8135 4.4668C37.3766 4.4668 38.165 5.34863 38.1787 7.1123V12H36.9141V7.10547C36.9095 6.57227 36.7865 6.17806 36.5449 5.92285C36.3079 5.66764 35.9365 5.54004 35.4307 5.54004C35.0205 5.54004 34.6605 5.64941 34.3506 5.86816C34.0407 6.08691 33.7992 6.37402 33.626 6.72949V12H32.3613V1.5H33.626V5.49902ZM45.2607 2.8125V4.60352H46.6416V5.58105H45.2607V10.168C45.2607 10.4642 45.3223 10.6875 45.4453 10.8379C45.5684 10.9837 45.778 11.0566 46.0742 11.0566C46.2201 11.0566 46.4206 11.0293 46.6758 10.9746V12C46.3431 12.0911 46.0195 12.1367 45.7051 12.1367C45.14 12.1367 44.7139 11.9658 44.4268 11.624C44.1396 11.2822 43.9961 10.7969 43.9961 10.168V5.58105H42.6494V4.60352H43.9961V2.8125H45.2607ZM47.6533 8.2334C47.6533 7.50879 47.7946 6.8571 48.0771 6.27832C48.3643 5.69954 48.7607 5.25293 49.2666 4.93848C49.777 4.62402 50.3581 4.4668 51.0098 4.4668C52.0169 4.4668 52.8304 4.81543 53.4502 5.5127C54.0745 6.20996 54.3867 7.13737 54.3867 8.29492V8.38379C54.3867 9.10384 54.2477 9.75098 53.9697 10.3252C53.6963 10.8949 53.3021 11.3392 52.7871 11.6582C52.2767 11.9772 51.6888 12.1367 51.0234 12.1367C50.0208 12.1367 49.2074 11.7881 48.583 11.0908C47.9632 10.3936 47.6533 9.4707 47.6533 8.32227V8.2334ZM48.9248 8.38379C48.9248 9.2041 49.1139 9.86263 49.4922 10.3594C49.875 10.8561 50.3854 11.1045 51.0234 11.1045C51.666 11.1045 52.1764 10.8538 52.5547 10.3525C52.9329 9.84668 53.1221 9.1403 53.1221 8.2334C53.1221 7.4222 52.9284 6.76595 52.541 6.26465C52.1582 5.75879 51.6478 5.50586 51.0098 5.50586C50.3854 5.50586 49.8818 5.75423 49.499 6.25098C49.1162 6.74772 48.9248 7.45866 48.9248 8.38379ZM60.5391 12C60.4661 11.8542 60.4069 11.5944 60.3613 11.2207C59.7734 11.8314 59.0716 12.1367 58.2559 12.1367C57.5267 12.1367 56.9274 11.9316 56.458 11.5215C55.9932 11.1068 55.7607 10.5827 55.7607 9.94922C55.7607 9.17904 56.0524 8.58203 56.6357 8.1582C57.2236 7.72982 58.0485 7.51562 59.1104 7.51562H60.3408V6.93457C60.3408 6.49251 60.2087 6.1416 59.9443 5.88184C59.68 5.61751 59.2904 5.48535 58.7754 5.48535C58.3242 5.48535 57.946 5.59928 57.6406 5.82715C57.3353 6.05501 57.1826 6.33073 57.1826 6.6543H55.9111C55.9111 6.28516 56.041 5.92969 56.3008 5.58789C56.5651 5.24154 56.9206 4.9681 57.3672 4.76758C57.8184 4.56706 58.3128 4.4668 58.8506 4.4668C59.7028 4.4668 60.3704 4.68099 60.8535 5.10938C61.3366 5.5332 61.5872 6.11882 61.6055 6.86621V10.2705C61.6055 10.9495 61.6921 11.4896 61.8652 11.8906V12H60.5391ZM58.4404 11.0361C58.8369 11.0361 59.2129 10.9336 59.5684 10.7285C59.9238 10.5234 60.1813 10.2568 60.3408 9.92871V8.41113H59.3496C57.8001 8.41113 57.0254 8.86458 57.0254 9.77148C57.0254 10.168 57.1576 10.4779 57.4219 10.7012C57.6862 10.9245 58.0257 11.0361 58.4404 11.0361ZM59.6094 1.5H61.1406L59.3086 3.50977H58.29L59.6094 1.5ZM64.7842 4.60352L64.8252 5.5332C65.3903 4.82227 66.1286 4.4668 67.04 4.4668C68.6032 4.4668 69.3916 5.34863 69.4053 7.1123V12H68.1406V7.10547C68.1361 6.57227 68.013 6.17806 67.7715 5.92285C67.5345 5.66764 67.1631 5.54004 66.6572 5.54004C66.2471 5.54004 65.887 5.64941 65.5771 5.86816C65.2673 6.08691 65.0257 6.37402 64.8525 6.72949V12H63.5879V4.60352H64.7842ZM77.752 11.1045C78.2031 11.1045 78.5973 10.9678 78.9346 10.6943C79.2718 10.4209 79.4587 10.0791 79.4951 9.66895H80.6914C80.6686 10.0928 80.5228 10.4961 80.2539 10.8789C79.985 11.2617 79.625 11.5671 79.1738 11.7949C78.7272 12.0228 78.2533 12.1367 77.752 12.1367C76.7448 12.1367 75.9427 11.8018 75.3457 11.1318C74.7533 10.4574 74.457 9.53678 74.457 8.37012V8.1582C74.457 7.43815 74.5892 6.79785 74.8535 6.2373C75.1178 5.67676 75.4961 5.24154 75.9883 4.93164C76.485 4.62174 77.0706 4.4668 77.7451 4.4668C78.5745 4.4668 79.2627 4.71517 79.8096 5.21191C80.361 5.70866 80.6549 6.35352 80.6914 7.14648H79.4951C79.4587 6.66797 79.2764 6.27604 78.9482 5.9707C78.6247 5.66081 78.2236 5.50586 77.7451 5.50586C77.1025 5.50586 76.6035 5.73828 76.248 6.20312C75.8971 6.66341 75.7217 7.33105 75.7217 8.20605V8.44531C75.7217 9.29753 75.8971 9.95378 76.248 10.4141C76.599 10.8743 77.1003 11.1045 77.752 11.1045ZM83.3779 5.49902C83.9385 4.81087 84.6676 4.4668 85.5654 4.4668C87.1286 4.4668 87.917 5.34863 87.9307 7.1123V12H86.666V7.10547C86.6615 6.57227 86.5384 6.17806 86.2969 5.92285C86.0599 5.66764 85.6885 5.54004 85.1826 5.54004C84.7725 5.54004 84.4124 5.64941 84.1025 5.86816C83.7926 6.08691 83.5511 6.37402 83.3779 6.72949V12H82.1133V1.5H83.3779V5.49902ZM91.1982 12H89.9336V4.60352H91.1982V12ZM89.8311 2.6416C89.8311 2.43652 89.8926 2.26335 90.0156 2.12207C90.1432 1.98079 90.3301 1.91016 90.5762 1.91016C90.8223 1.91016 91.0091 1.98079 91.1367 2.12207C91.2643 2.26335 91.3281 2.43652 91.3281 2.6416C91.3281 2.84668 91.2643 3.01758 91.1367 3.1543C91.0091 3.29102 90.8223 3.35938 90.5762 3.35938C90.3301 3.35938 90.1432 3.29102 90.0156 3.1543C89.8926 3.01758 89.8311 2.84668 89.8311 2.6416ZM102.949 8.38379C102.949 9.50944 102.692 10.4163 102.177 11.1045C101.662 11.7926 100.965 12.1367 100.085 12.1367C99.1872 12.1367 98.4808 11.8519 97.9658 11.2822V14.8438H96.7012V4.60352H97.8564L97.918 5.42383C98.4329 4.78581 99.1484 4.4668 100.064 4.4668C100.953 4.4668 101.655 4.80176 102.17 5.47168C102.689 6.1416 102.949 7.07357 102.949 8.26758V8.38379ZM101.685 8.24023C101.685 7.40625 101.507 6.74772 101.151 6.26465C100.796 5.78158 100.308 5.54004 99.6885 5.54004C98.9229 5.54004 98.3486 5.87956 97.9658 6.55859V10.0928C98.3441 10.7673 98.9229 11.1045 99.7021 11.1045C100.308 11.1045 100.789 10.8652 101.145 10.3867C101.505 9.90365 101.685 9.18815 101.685 8.24023ZM105.827 5.49902C106.388 4.81087 107.117 4.4668 108.015 4.4668C109.578 4.4668 110.366 5.34863 110.38 7.1123V12H109.115V7.10547C109.111 6.57227 108.988 6.17806 108.746 5.92285C108.509 5.66764 108.138 5.54004 107.632 5.54004C107.222 5.54004 106.862 5.64941 106.552 5.86816C106.242 6.08691 106 6.37402 105.827 6.72949V12H104.562V1.5H105.827V5.49902ZM113.647 12H112.376V4.60352H113.647V12ZM113.661 1.50684H115.192L113.36 3.5166H112.342L113.661 1.50684ZM118.897 8.24023C118.897 7.07812 119.164 6.15983 119.697 5.48535C120.23 4.80632 120.946 4.4668 121.844 4.4668C122.719 4.4668 123.409 4.76074 123.915 5.34863L123.97 4.60352H125.132V14.8438H123.867V11.3164C123.357 11.8633 122.678 12.1367 121.83 12.1367C120.937 12.1367 120.224 11.7904 119.69 11.0977C119.162 10.4004 118.897 9.47754 118.897 8.3291V8.24023ZM120.162 8.38379C120.162 9.23145 120.34 9.89681 120.695 10.3799C121.055 10.863 121.538 11.1045 122.145 11.1045C122.896 11.1045 123.471 10.7718 123.867 10.1064V6.4834C123.466 5.83171 122.896 5.50586 122.158 5.50586C121.548 5.50586 121.062 5.74967 120.702 6.2373C120.342 6.72038 120.162 7.43587 120.162 8.38379ZM131.729 11.2686C131.236 11.8473 130.514 12.1367 129.562 12.1367C128.773 12.1367 128.172 11.9089 127.757 11.4531C127.347 10.9928 127.139 10.3138 127.135 9.41602V4.60352H128.399V9.38184C128.399 10.5029 128.855 11.0635 129.767 11.0635C130.733 11.0635 131.375 10.7035 131.694 9.9834V4.60352H132.959V12H131.756L131.729 11.2686ZM139.453 12C139.38 11.8542 139.321 11.5944 139.275 11.2207C138.688 11.8314 137.986 12.1367 137.17 12.1367C136.441 12.1367 135.841 11.9316 135.372 11.5215C134.907 11.1068 134.675 10.5827 134.675 9.94922C134.675 9.17904 134.966 8.58203 135.55 8.1582C136.138 7.72982 136.963 7.51562 138.024 7.51562H139.255V6.93457C139.255 6.49251 139.123 6.1416 138.858 5.88184C138.594 5.61751 138.204 5.48535 137.689 5.48535C137.238 5.48535 136.86 5.59928 136.555 5.82715C136.249 6.05501 136.097 6.33073 136.097 6.6543H134.825C134.825 6.28516 134.955 5.92969 135.215 5.58789C135.479 5.24154 135.835 4.9681 136.281 4.76758C136.732 4.56706 137.227 4.4668 137.765 4.4668C138.617 4.4668 139.285 4.68099 139.768 5.10938C140.251 5.5332 140.501 6.11882 140.52 6.86621V10.2705C140.52 10.9495 140.606 11.4896 140.779 11.8906V12H139.453ZM137.354 11.0361C137.751 11.0361 138.127 10.9336 138.482 10.7285C138.838 10.5234 139.095 10.2568 139.255 9.92871V8.41113H138.264C136.714 8.41113 135.939 8.86458 135.939 9.77148C135.939 10.168 136.072 10.4779 136.336 10.7012C136.6 10.9245 136.94 11.0361 137.354 11.0361ZM148.941 11.1045C149.393 11.1045 149.787 10.9678 150.124 10.6943C150.461 10.4209 150.648 10.0791 150.685 9.66895H151.881C151.858 10.0928 151.712 10.4961 151.443 10.8789C151.174 11.2617 150.814 11.5671 150.363 11.7949C149.917 12.0228 149.443 12.1367 148.941 12.1367C147.934 12.1367 147.132 11.8018 146.535 11.1318C145.943 10.4574 145.646 9.53678 145.646 8.37012V8.1582C145.646 7.43815 145.779 6.79785 146.043 6.2373C146.307 5.67676 146.686 5.24154 147.178 4.93164C147.674 4.62174 148.26 4.4668 148.935 4.4668C149.764 4.4668 150.452 4.71517 150.999 5.21191C151.55 5.70866 151.844 6.35352 151.881 7.14648H150.685C150.648 6.66797 150.466 6.27604 150.138 5.9707C149.814 5.66081 149.413 5.50586 148.935 5.50586C148.292 5.50586 147.793 5.73828 147.438 6.20312C147.087 6.66341 146.911 7.33105 146.911 8.20605V8.44531C146.911 9.29753 147.087 9.95378 147.438 10.4141C147.788 10.8743 148.29 11.1045 148.941 11.1045ZM154.567 5.49902C155.128 4.81087 155.857 4.4668 156.755 4.4668C158.318 4.4668 159.106 5.34863 159.12 7.1123V12H157.855V7.10547C157.851 6.57227 157.728 6.17806 157.486 5.92285C157.249 5.66764 156.878 5.54004 156.372 5.54004C155.962 5.54004 155.602 5.64941 155.292 5.86816C154.982 6.08691 154.741 6.37402 154.567 6.72949V12H153.303V1.5H154.567V5.49902ZM165.58 11.2686C165.088 11.8473 164.366 12.1367 163.413 12.1367C162.625 12.1367 162.023 11.9089 161.608 11.4531C161.198 10.9928 160.991 10.3138 160.986 9.41602V4.60352H162.251V9.38184C162.251 10.5029 162.707 11.0635 163.618 11.0635C164.584 11.0635 165.227 10.7035 165.546 9.9834V4.60352H166.811V12H165.607L165.58 11.2686ZM171.158 10.1475L172.881 4.60352H174.234L171.261 13.1416C170.8 14.3721 170.069 14.9873 169.066 14.9873L168.827 14.9668L168.355 14.8779V13.8525L168.697 13.8799C169.126 13.8799 169.458 13.7933 169.695 13.6201C169.937 13.4469 170.135 13.1302 170.29 12.6699L170.57 11.918L167.932 4.60352H169.312L171.158 10.1475ZM178.343 12.1367C177.34 12.1367 176.524 11.8086 175.896 11.1523C175.267 10.4915 174.952 9.6097 174.952 8.50684V8.27441C174.952 7.54069 175.091 6.88672 175.369 6.3125C175.652 5.73372 176.044 5.28255 176.545 4.95898C177.051 4.63086 177.598 4.4668 178.186 4.4668C179.147 4.4668 179.895 4.78353 180.428 5.41699C180.961 6.05046 181.228 6.95736 181.228 8.1377V8.66406H176.217C176.235 9.39323 176.447 9.9834 176.853 10.4346C177.263 10.8812 177.782 11.1045 178.411 11.1045C178.858 11.1045 179.236 11.0133 179.546 10.8311C179.856 10.6488 180.127 10.4072 180.359 10.1064L181.132 10.708C180.512 11.6605 179.582 12.1367 178.343 12.1367ZM178.186 5.50586C177.675 5.50586 177.247 5.69271 176.9 6.06641C176.554 6.43555 176.34 6.95508 176.258 7.625H179.963V7.5293C179.926 6.88672 179.753 6.38997 179.443 6.03906C179.133 5.68359 178.714 5.50586 178.186 5.50586ZM180.681 3.61914H179.519L178.172 2.34766L176.825 3.61914H175.67L177.529 1.82812H178.814L180.681 3.61914ZM180.113 2.67578L180.106 1.78027C180.403 1.76204 180.617 1.72331 180.749 1.66406C180.886 1.60482 180.954 1.5 180.954 1.34961C180.954 1.04427 180.633 0.891602 179.99 0.891602L180.024 0.262695C180.608 0.262695 181.052 0.362956 181.357 0.563477C181.663 0.763997 181.815 1.0306 181.815 1.36328C181.815 1.63216 181.731 1.8418 181.562 1.99219C181.394 2.14258 181.173 2.23372 180.899 2.26562L180.893 2.67578H180.113ZM183.894 4.60352L183.935 5.5332C184.5 4.82227 185.238 4.4668 186.149 4.4668C187.713 4.4668 188.501 5.34863 188.515 7.1123V12H187.25V7.10547C187.245 6.57227 187.122 6.17806 186.881 5.92285C186.644 5.66764 186.272 5.54004 185.767 5.54004C185.356 5.54004 184.996 5.64941 184.687 5.86816C184.377 6.08691 184.135 6.37402 183.962 6.72949V12H182.697V4.60352H183.894ZM195.959 8.5752L195.166 9.40234V12H193.901V1.5H195.166V7.85059L195.843 7.03711L198.146 4.60352H199.685L196.807 7.69336L200.02 12H198.536L195.959 8.5752ZM202.255 5.49902C202.815 4.81087 203.545 4.4668 204.442 4.4668C206.006 4.4668 206.794 5.34863 206.808 7.1123V12H205.543V7.10547C205.538 6.57227 205.415 6.17806 205.174 5.92285C204.937 5.66764 204.565 5.54004 204.06 5.54004C203.649 5.54004 203.289 5.64941 202.979 5.86816C202.67 6.08691 202.428 6.37402 202.255 6.72949V12H200.99V1.5H202.255V5.49902ZM208.366 8.2334C208.366 7.50879 208.507 6.8571 208.79 6.27832C209.077 5.69954 209.474 5.25293 209.979 4.93848C210.49 4.62402 211.071 4.4668 211.723 4.4668C212.73 4.4668 213.543 4.81543 214.163 5.5127C214.787 6.20996 215.1 7.13737 215.1 8.29492V8.38379C215.1 9.10384 214.961 9.75098 214.683 10.3252C214.409 10.8949 214.015 11.3392 213.5 11.6582C212.99 11.9772 212.402 12.1367 211.736 12.1367C210.734 12.1367 209.92 11.7881 209.296 11.0908C208.676 10.3936 208.366 9.4707 208.366 8.32227V8.2334ZM209.638 8.38379C209.638 9.2041 209.827 9.86263 210.205 10.3594C210.588 10.8561 211.098 11.1045 211.736 11.1045C212.379 11.1045 212.889 10.8538 213.268 10.3525C213.646 9.84668 213.835 9.1403 213.835 8.2334C213.835 7.4222 213.641 6.76595 213.254 6.26465C212.871 5.75879 212.361 5.50586 211.723 5.50586C211.098 5.50586 210.595 5.75423 210.212 6.25098C209.829 6.74772 209.638 7.45866 209.638 8.38379ZM221.252 12C221.179 11.8542 221.12 11.5944 221.074 11.2207C220.486 11.8314 219.785 12.1367 218.969 12.1367C218.24 12.1367 217.64 11.9316 217.171 11.5215C216.706 11.1068 216.474 10.5827 216.474 9.94922C216.474 9.17904 216.765 8.58203 217.349 8.1582C217.937 7.72982 218.761 7.51562 219.823 7.51562H221.054V6.93457C221.054 6.49251 220.922 6.1416 220.657 5.88184C220.393 5.61751 220.003 5.48535 219.488 5.48535C219.037 5.48535 218.659 5.59928 218.354 5.82715C218.048 6.05501 217.896 6.33073 217.896 6.6543H216.624C216.624 6.28516 216.754 5.92969 217.014 5.58789C217.278 5.24154 217.633 4.9681 218.08 4.76758C218.531 4.56706 219.026 4.4668 219.563 4.4668C220.416 4.4668 221.083 4.68099 221.566 5.10938C222.049 5.5332 222.3 6.11882 222.318 6.86621V10.2705C222.318 10.9495 222.405 11.4896 222.578 11.8906V12H221.252ZM219.153 11.0361C219.55 11.0361 219.926 10.9336 220.281 10.7285C220.637 10.5234 220.894 10.2568 221.054 9.92871V8.41113H220.062C218.513 8.41113 217.738 8.86458 217.738 9.77148C217.738 10.168 217.87 10.4779 218.135 10.7012C218.399 10.9245 218.739 11.0361 219.153 11.0361ZM219.276 3.40723L219.27 2.36133C219.611 2.33854 219.862 2.29297 220.021 2.22461C220.181 2.15625 220.261 2.0332 220.261 1.85547C220.261 1.67773 220.156 1.54557 219.946 1.45898C219.741 1.36784 219.468 1.32227 219.126 1.32227L219.174 0.597656C219.853 0.597656 220.368 0.716146 220.719 0.953125C221.07 1.18555 221.245 1.49544 221.245 1.88281C221.245 2.16081 221.156 2.39095 220.979 2.57324C220.801 2.75553 220.536 2.87174 220.186 2.92188L220.179 3.40723H219.276ZM225.497 4.60352L225.538 5.5332C226.103 4.82227 226.841 4.4668 227.753 4.4668C229.316 4.4668 230.104 5.34863 230.118 7.1123V12H228.854V7.10547C228.849 6.57227 228.726 6.17806 228.484 5.92285C228.247 5.66764 227.876 5.54004 227.37 5.54004C226.96 5.54004 226.6 5.64941 226.29 5.86816C225.98 6.08691 225.739 6.37402 225.565 6.72949V12H224.301V4.60352H225.497Z" fill="#889DFC"/>
</svg>
