<svg width="196" height="14" viewBox="0 0 196 14" fill="none" xmlns="http://www.w3.org/2000/svg">
<path d="M8.03223 2.12695H4.83301V11H3.52734V2.12695H0.334961V1.04688H8.03223V2.12695ZM10.5752 4.49902C11.1357 3.81087 11.8649 3.4668 12.7627 3.4668C14.3258 3.4668 15.1143 4.34863 15.1279 6.1123V11H13.8633V6.10547C13.8587 5.57227 13.7357 5.17806 13.4941 4.92285C13.2572 4.66764 12.8857 4.54004 12.3799 4.54004C11.9697 4.54004 11.6097 4.64941 11.2998 4.86816C10.9899 5.08691 10.7484 5.37402 10.5752 5.72949V11H9.31055V0.5H10.5752V4.49902ZM21.5879 11C21.515 10.8542 21.4557 10.5944 21.4102 10.2207C20.8223 10.8314 20.1204 11.1367 19.3047 11.1367C18.5755 11.1367 17.9762 10.9316 17.5068 10.5215C17.042 10.1068 16.8096 9.58268 16.8096 8.94922C16.8096 8.17904 17.1012 7.58203 17.6846 7.1582C18.2725 6.72982 19.0973 6.51562 20.1592 6.51562H21.3896V5.93457C21.3896 5.49251 21.2575 5.1416 20.9932 4.88184C20.7288 4.61751 20.3392 4.48535 19.8242 4.48535C19.373 4.48535 18.9948 4.59928 18.6895 4.82715C18.3841 5.05501 18.2314 5.33073 18.2314 5.6543H16.96C16.96 5.28516 17.0898 4.92969 17.3496 4.58789C17.6139 4.24154 17.9694 3.9681 18.416 3.76758C18.8672 3.56706 19.3617 3.4668 19.8994 3.4668C20.7516 3.4668 21.4193 3.68099 21.9023 4.10938C22.3854 4.5332 22.6361 5.11882 22.6543 5.86621V9.27051C22.6543 9.94954 22.7409 10.4896 22.9141 10.8906V11H21.5879ZM19.4893 10.0361C19.8857 10.0361 20.2617 9.93359 20.6172 9.72852C20.9727 9.52344 21.2301 9.25684 21.3896 8.92871V7.41113H20.3984C18.849 7.41113 18.0742 7.86458 18.0742 8.77148C18.0742 9.16797 18.2064 9.47786 18.4707 9.70117C18.735 9.92448 19.0745 10.0361 19.4893 10.0361ZM25.833 3.60352L25.874 4.5332C26.4391 3.82227 27.1774 3.4668 28.0889 3.4668C29.652 3.4668 30.4404 4.34863 30.4541 6.1123V11H29.1895V6.10547C29.1849 5.57227 29.0618 5.17806 28.8203 4.92285C28.5833 4.66764 28.2119 4.54004 27.7061 4.54004C27.2959 4.54004 26.9359 4.64941 26.626 4.86816C26.3161 5.08691 26.0745 5.37402 25.9014 5.72949V11H24.6367V3.60352H25.833ZM33.626 4.49902C34.1865 3.81087 34.9157 3.4668 35.8135 3.4668C37.3766 3.4668 38.165 4.34863 38.1787 6.1123V11H36.9141V6.10547C36.9095 5.57227 36.7865 5.17806 36.5449 4.92285C36.3079 4.66764 35.9365 4.54004 35.4307 4.54004C35.0205 4.54004 34.6605 4.64941 34.3506 4.86816C34.0407 5.08691 33.7992 5.37402 33.626 5.72949V11H32.3613V0.5H33.626V4.49902ZM45.2607 1.8125V3.60352H46.6416V4.58105H45.2607V9.16797C45.2607 9.46419 45.3223 9.6875 45.4453 9.83789C45.5684 9.98372 45.778 10.0566 46.0742 10.0566C46.2201 10.0566 46.4206 10.0293 46.6758 9.97461V11C46.3431 11.0911 46.0195 11.1367 45.7051 11.1367C45.14 11.1367 44.7139 10.9658 44.4268 10.624C44.1396 10.2822 43.9961 9.79688 43.9961 9.16797V4.58105H42.6494V3.60352H43.9961V1.8125H45.2607ZM47.6533 7.2334C47.6533 6.50879 47.7946 5.8571 48.0771 5.27832C48.3643 4.69954 48.7607 4.25293 49.2666 3.93848C49.777 3.62402 50.3581 3.4668 51.0098 3.4668C52.0169 3.4668 52.8304 3.81543 53.4502 4.5127C54.0745 5.20996 54.3867 6.13737 54.3867 7.29492V7.38379C54.3867 8.10384 54.2477 8.75098 53.9697 9.3252C53.6963 9.89486 53.3021 10.3392 52.7871 10.6582C52.2767 10.9772 51.6888 11.1367 51.0234 11.1367C50.0208 11.1367 49.2074 10.7881 48.583 10.0908C47.9632 9.39355 47.6533 8.4707 47.6533 7.32227V7.2334ZM48.9248 7.38379C48.9248 8.2041 49.1139 8.86263 49.4922 9.35938C49.875 9.85612 50.3854 10.1045 51.0234 10.1045C51.666 10.1045 52.1764 9.85384 52.5547 9.35254C52.9329 8.84668 53.1221 8.1403 53.1221 7.2334C53.1221 6.4222 52.9284 5.76595 52.541 5.26465C52.1582 4.75879 51.6478 4.50586 51.0098 4.50586C50.3854 4.50586 49.8818 4.75423 49.499 5.25098C49.1162 5.74772 48.9248 6.45866 48.9248 7.38379ZM60.5391 11C60.4661 10.8542 60.4069 10.5944 60.3613 10.2207C59.7734 10.8314 59.0716 11.1367 58.2559 11.1367C57.5267 11.1367 56.9274 10.9316 56.458 10.5215C55.9932 10.1068 55.7607 9.58268 55.7607 8.94922C55.7607 8.17904 56.0524 7.58203 56.6357 7.1582C57.2236 6.72982 58.0485 6.51562 59.1104 6.51562H60.3408V5.93457C60.3408 5.49251 60.2087 5.1416 59.9443 4.88184C59.68 4.61751 59.2904 4.48535 58.7754 4.48535C58.3242 4.48535 57.946 4.59928 57.6406 4.82715C57.3353 5.05501 57.1826 5.33073 57.1826 5.6543H55.9111C55.9111 5.28516 56.041 4.92969 56.3008 4.58789C56.5651 4.24154 56.9206 3.9681 57.3672 3.76758C57.8184 3.56706 58.3128 3.4668 58.8506 3.4668C59.7028 3.4668 60.3704 3.68099 60.8535 4.10938C61.3366 4.5332 61.5872 5.11882 61.6055 5.86621V9.27051C61.6055 9.94954 61.6921 10.4896 61.8652 10.8906V11H60.5391ZM58.4404 10.0361C58.8369 10.0361 59.2129 9.93359 59.5684 9.72852C59.9238 9.52344 60.1813 9.25684 60.3408 8.92871V7.41113H59.3496C57.8001 7.41113 57.0254 7.86458 57.0254 8.77148C57.0254 9.16797 57.1576 9.47786 57.4219 9.70117C57.6862 9.92448 58.0257 10.0361 58.4404 10.0361ZM59.6094 0.5H61.1406L59.3086 2.50977H58.29L59.6094 0.5ZM64.7842 3.60352L64.8252 4.5332C65.3903 3.82227 66.1286 3.4668 67.04 3.4668C68.6032 3.4668 69.3916 4.34863 69.4053 6.1123V11H68.1406V6.10547C68.1361 5.57227 68.013 5.17806 67.7715 4.92285C67.5345 4.66764 67.1631 4.54004 66.6572 4.54004C66.2471 4.54004 65.887 4.64941 65.5771 4.86816C65.2673 5.08691 65.0257 5.37402 64.8525 5.72949V11H63.5879V3.60352H64.7842ZM77.752 10.1045C78.2031 10.1045 78.5973 9.96777 78.9346 9.69434C79.2718 9.4209 79.4587 9.0791 79.4951 8.66895H80.6914C80.6686 9.09277 80.5228 9.49609 80.2539 9.87891C79.985 10.2617 79.625 10.5671 79.1738 10.7949C78.7272 11.0228 78.2533 11.1367 77.752 11.1367C76.7448 11.1367 75.9427 10.8018 75.3457 10.1318C74.7533 9.45736 74.457 8.53678 74.457 7.37012V7.1582C74.457 6.43815 74.5892 5.79785 74.8535 5.2373C75.1178 4.67676 75.4961 4.24154 75.9883 3.93164C76.485 3.62174 77.0706 3.4668 77.7451 3.4668C78.5745 3.4668 79.2627 3.71517 79.8096 4.21191C80.361 4.70866 80.6549 5.35352 80.6914 6.14648H79.4951C79.4587 5.66797 79.2764 5.27604 78.9482 4.9707C78.6247 4.66081 78.2236 4.50586 77.7451 4.50586C77.1025 4.50586 76.6035 4.73828 76.248 5.20312C75.8971 5.66341 75.7217 6.33105 75.7217 7.20605V7.44531C75.7217 8.29753 75.8971 8.95378 76.248 9.41406C76.599 9.87435 77.1003 10.1045 77.752 10.1045ZM83.3779 4.49902C83.9385 3.81087 84.6676 3.4668 85.5654 3.4668C87.1286 3.4668 87.917 4.34863 87.9307 6.1123V11H86.666V6.10547C86.6615 5.57227 86.5384 5.17806 86.2969 4.92285C86.0599 4.66764 85.6885 4.54004 85.1826 4.54004C84.7725 4.54004 84.4124 4.64941 84.1025 4.86816C83.7926 5.08691 83.5511 5.37402 83.3779 5.72949V11H82.1133V0.5H83.3779V4.49902ZM91.1982 11H89.9336V3.60352H91.1982V11ZM89.8311 1.6416C89.8311 1.43652 89.8926 1.26335 90.0156 1.12207C90.1432 0.980794 90.3301 0.910156 90.5762 0.910156C90.8223 0.910156 91.0091 0.980794 91.1367 1.12207C91.2643 1.26335 91.3281 1.43652 91.3281 1.6416C91.3281 1.84668 91.2643 2.01758 91.1367 2.1543C91.0091 2.29102 90.8223 2.35938 90.5762 2.35938C90.3301 2.35938 90.1432 2.29102 90.0156 2.1543C89.8926 2.01758 89.8311 1.84668 89.8311 1.6416ZM102.949 7.38379C102.949 8.50944 102.692 9.41634 102.177 10.1045C101.662 10.7926 100.965 11.1367 100.085 11.1367C99.1872 11.1367 98.4808 10.8519 97.9658 10.2822V13.8438H96.7012V3.60352H97.8564L97.918 4.42383C98.4329 3.78581 99.1484 3.4668 100.064 3.4668C100.953 3.4668 101.655 3.80176 102.17 4.47168C102.689 5.1416 102.949 6.07357 102.949 7.26758V7.38379ZM101.685 7.24023C101.685 6.40625 101.507 5.74772 101.151 5.26465C100.796 4.78158 100.308 4.54004 99.6885 4.54004C98.9229 4.54004 98.3486 4.87956 97.9658 5.55859V9.09277C98.3441 9.76725 98.9229 10.1045 99.7021 10.1045C100.308 10.1045 100.789 9.86523 101.145 9.38672C101.505 8.90365 101.685 8.18815 101.685 7.24023ZM105.827 4.49902C106.388 3.81087 107.117 3.4668 108.015 3.4668C109.578 3.4668 110.366 4.34863 110.38 6.1123V11H109.115V6.10547C109.111 5.57227 108.988 5.17806 108.746 4.92285C108.509 4.66764 108.138 4.54004 107.632 4.54004C107.222 4.54004 106.862 4.64941 106.552 4.86816C106.242 5.08691 106 5.37402 105.827 5.72949V11H104.562V0.5H105.827V4.49902ZM113.647 11H112.376V3.60352H113.647V11ZM113.661 0.506836H115.192L113.36 2.5166H112.342L113.661 0.506836ZM120.921 1.8125V3.60352H122.302V4.58105H120.921V9.16797C120.921 9.46419 120.982 9.6875 121.105 9.83789C121.229 9.98372 121.438 10.0566 121.734 10.0566C121.88 10.0566 122.081 10.0293 122.336 9.97461V11C122.003 11.0911 121.68 11.1367 121.365 11.1367C120.8 11.1367 120.374 10.9658 120.087 10.624C119.8 10.2822 119.656 9.79688 119.656 9.16797V4.58105H118.31V3.60352H119.656V1.8125H120.921ZM128.352 11C128.279 10.8542 128.219 10.5944 128.174 10.2207C127.586 10.8314 126.884 11.1367 126.068 11.1367C125.339 11.1367 124.74 10.9316 124.271 10.5215C123.806 10.1068 123.573 9.58268 123.573 8.94922C123.573 8.17904 123.865 7.58203 124.448 7.1582C125.036 6.72982 125.861 6.51562 126.923 6.51562H128.153V5.93457C128.153 5.49251 128.021 5.1416 127.757 4.88184C127.493 4.61751 127.103 4.48535 126.588 4.48535C126.137 4.48535 125.758 4.59928 125.453 4.82715C125.148 5.05501 124.995 5.33073 124.995 5.6543H123.724C123.724 5.28516 123.854 4.92969 124.113 4.58789C124.378 4.24154 124.733 3.9681 125.18 3.76758C125.631 3.56706 126.125 3.4668 126.663 3.4668C127.515 3.4668 128.183 3.68099 128.666 4.10938C129.149 4.5332 129.4 5.11882 129.418 5.86621V9.27051C129.418 9.94954 129.505 10.4896 129.678 10.8906V11H128.352ZM126.253 10.0361C126.649 10.0361 127.025 9.93359 127.381 9.72852C127.736 9.52344 127.994 9.25684 128.153 8.92871V7.41113H127.162C125.613 7.41113 124.838 7.86458 124.838 8.77148C124.838 9.16797 124.97 9.47786 125.234 9.70117C125.499 9.92448 125.838 10.0361 126.253 10.0361ZM125.467 12.6748C125.467 12.4697 125.528 12.2965 125.651 12.1553C125.779 12.014 125.966 11.9434 126.212 11.9434C126.458 11.9434 126.645 12.014 126.772 12.1553C126.9 12.2965 126.964 12.4697 126.964 12.6748C126.964 12.8799 126.9 13.0508 126.772 13.1875C126.645 13.3242 126.458 13.3926 126.212 13.3926C125.966 13.3926 125.779 13.3242 125.651 13.1875C125.528 13.0508 125.467 12.8799 125.467 12.6748ZM132.774 11H131.51V3.60352H132.774V11ZM131.407 1.6416C131.407 1.43652 131.469 1.26335 131.592 1.12207C131.719 0.980794 131.906 0.910156 132.152 0.910156C132.398 0.910156 132.585 0.980794 132.713 1.12207C132.84 1.26335 132.904 1.43652 132.904 1.6416C132.904 1.84668 132.84 2.01758 132.713 2.1543C132.585 2.29102 132.398 2.35938 132.152 2.35938C131.906 2.35938 131.719 2.29102 131.592 2.1543C131.469 2.01758 131.407 1.84668 131.407 1.6416ZM144.539 7.38379C144.539 8.514 144.279 9.42318 143.76 10.1113C143.24 10.7949 142.543 11.1367 141.668 11.1367C140.734 11.1367 140.011 10.8063 139.501 10.1455L139.439 11H138.277V0.5H139.542V4.41699C140.052 3.78353 140.757 3.4668 141.654 3.4668C142.552 3.4668 143.256 3.80632 143.767 4.48535C144.282 5.16439 144.539 6.09408 144.539 7.27441V7.38379ZM143.274 7.24023C143.274 6.37891 143.108 5.71354 142.775 5.24414C142.443 4.77474 141.964 4.54004 141.34 4.54004C140.506 4.54004 139.907 4.92741 139.542 5.70215V8.90137C139.929 9.67611 140.533 10.0635 141.354 10.0635C141.96 10.0635 142.431 9.82878 142.769 9.35938C143.106 8.88997 143.274 8.18359 143.274 7.24023ZM149.208 11.1367C148.205 11.1367 147.39 10.8086 146.761 10.1523C146.132 9.49154 145.817 8.6097 145.817 7.50684V7.27441C145.817 6.54069 145.956 5.88672 146.234 5.3125C146.517 4.73372 146.909 4.28255 147.41 3.95898C147.916 3.63086 148.463 3.4668 149.051 3.4668C150.012 3.4668 150.76 3.78353 151.293 4.41699C151.826 5.05046 152.093 5.95736 152.093 7.1377V7.66406H147.082C147.1 8.39323 147.312 8.9834 147.718 9.43457C148.128 9.88118 148.647 10.1045 149.276 10.1045C149.723 10.1045 150.101 10.0133 150.411 9.83105C150.721 9.64876 150.992 9.40723 151.225 9.10645L151.997 9.70801C151.377 10.6605 150.448 11.1367 149.208 11.1367ZM149.051 4.50586C148.54 4.50586 148.112 4.69271 147.766 5.06641C147.419 5.43555 147.205 5.95508 147.123 6.625H150.828V6.5293C150.792 5.88672 150.618 5.38997 150.309 5.03906C149.999 4.68359 149.579 4.50586 149.051 4.50586ZM151.115 2.37305V2.44141H150.069L149.044 1.2793L148.025 2.44141H146.979V2.35938L148.661 0.5H149.427L151.115 2.37305ZM148.271 12.6748C148.271 12.4697 148.333 12.2965 148.456 12.1553C148.584 12.014 148.771 11.9434 149.017 11.9434C149.263 11.9434 149.45 12.014 149.577 12.1553C149.705 12.2965 149.769 12.4697 149.769 12.6748C149.769 12.8799 149.705 13.0508 149.577 13.1875C149.45 13.3242 149.263 13.3926 149.017 13.3926C148.771 13.3926 148.584 13.3242 148.456 13.1875C148.333 13.0508 148.271 12.8799 148.271 12.6748ZM154.759 3.60352L154.8 4.5332C155.365 3.82227 156.103 3.4668 157.015 3.4668C158.578 3.4668 159.366 4.34863 159.38 6.1123V11H158.115V6.10547C158.111 5.57227 157.988 5.17806 157.746 4.92285C157.509 4.66764 157.138 4.54004 156.632 4.54004C156.222 4.54004 155.862 4.64941 155.552 4.86816C155.242 5.08691 155 5.37402 154.827 5.72949V11H153.562V3.60352H154.759ZM162.552 4.49902C163.112 3.81087 163.841 3.4668 164.739 3.4668C166.302 3.4668 167.091 4.34863 167.104 6.1123V11H165.84V6.10547C165.835 5.57227 165.712 5.17806 165.471 4.92285C165.234 4.66764 164.862 4.54004 164.356 4.54004C163.946 4.54004 163.586 4.64941 163.276 4.86816C162.966 5.08691 162.725 5.37402 162.552 5.72949V11H161.287V0.5H162.552V4.49902ZM174.911 9.28418L176.743 3.60352H178.035L175.383 11H174.419L171.739 3.60352H173.031L174.911 9.28418ZM180.626 11H179.361V3.60352H180.626V11ZM179.259 1.6416C179.259 1.43652 179.32 1.26335 179.443 1.12207C179.571 0.980794 179.758 0.910156 180.004 0.910156C180.25 0.910156 180.437 0.980794 180.564 1.12207C180.692 1.26335 180.756 1.43652 180.756 1.6416C180.756 1.84668 180.692 2.01758 180.564 2.1543C180.437 2.29102 180.25 2.35938 180.004 2.35938C179.758 2.35938 179.571 2.29102 179.443 2.1543C179.32 2.01758 179.259 1.84668 179.259 1.6416ZM185.726 11.1367C184.723 11.1367 183.907 10.8086 183.278 10.1523C182.649 9.49154 182.335 8.6097 182.335 7.50684V7.27441C182.335 6.54069 182.474 5.88672 182.752 5.3125C183.035 4.73372 183.426 4.28255 183.928 3.95898C184.434 3.63086 184.98 3.4668 185.568 3.4668C186.53 3.4668 187.277 3.78353 187.811 4.41699C188.344 5.05046 188.61 5.95736 188.61 7.1377V7.66406H183.6C183.618 8.39323 183.83 8.9834 184.235 9.43457C184.646 9.88118 185.165 10.1045 185.794 10.1045C186.241 10.1045 186.619 10.0133 186.929 9.83105C187.239 9.64876 187.51 9.40723 187.742 9.10645L188.515 9.70801C187.895 10.6605 186.965 11.1367 185.726 11.1367ZM185.568 4.50586C185.058 4.50586 184.63 4.69271 184.283 5.06641C183.937 5.43555 183.723 5.95508 183.641 6.625H187.346V6.5293C187.309 5.88672 187.136 5.38997 186.826 5.03906C186.516 4.68359 186.097 4.50586 185.568 4.50586ZM187.633 2.37305V2.44141H186.587L185.562 1.2793L184.543 2.44141H183.497V2.35938L185.179 0.5H185.944L187.633 2.37305ZM184.789 12.6748C184.789 12.4697 184.851 12.2965 184.974 12.1553C185.101 12.014 185.288 11.9434 185.534 11.9434C185.78 11.9434 185.967 12.014 186.095 12.1553C186.222 12.2965 186.286 12.4697 186.286 12.6748C186.286 12.8799 186.222 13.0508 186.095 13.1875C185.967 13.3242 185.78 13.3926 185.534 13.3926C185.288 13.3926 185.101 13.3242 184.974 13.1875C184.851 13.0508 184.789 12.8799 184.789 12.6748ZM191.276 3.60352L191.317 4.5332C191.882 3.82227 192.621 3.4668 193.532 3.4668C195.095 3.4668 195.884 4.34863 195.897 6.1123V11H194.633V6.10547C194.628 5.57227 194.505 5.17806 194.264 4.92285C194.027 4.66764 193.655 4.54004 193.149 4.54004C192.739 4.54004 192.379 4.64941 192.069 4.86816C191.759 5.08691 191.518 5.37402 191.345 5.72949V11H190.08V3.60352H191.276Z" fill="#889DFC"/>
</svg>
