<svg width="87" height="82" viewBox="0 0 87 82" fill="none" xmlns="http://www.w3.org/2000/svg">
<path d="M42.9281 8.03271C23.9592 8.03271 8.58691 22.4132 8.58691 40.1584C8.58691 57.9035 23.9592 72.284 42.9281 72.284C61.8971 72.284 77.2693 57.9035 77.2693 40.1584C77.2693 22.4132 61.8971 8.03271 42.9281 8.03271ZM22.8943 59.2759C26.2361 49.9026 36.2559 53.5639 37.9211 48.4825V45.102C37.1678 44.7258 35.0268 42.1348 34.7889 40.1054C34.1998 40.063 33.2822 39.5119 32.999 37.3448C32.8574 36.1738 33.4352 35.5274 33.792 35.3154C33.792 35.3154 32.9141 33.4344 32.9141 31.5746C32.9141 26.0216 35.8537 21.4171 42.9281 21.4171C46.7514 21.4171 47.9352 23.9498 47.9352 23.9498C51.3563 23.9498 52.9422 27.4628 52.9422 31.564C52.9422 33.6092 52.0586 35.3154 52.0586 35.3154C52.4211 35.5168 52.9988 36.1738 52.8572 37.3342C52.574 39.5119 51.6564 40.063 51.0674 40.1054C50.8295 42.1348 48.6828 44.7152 47.9352 45.102V48.4825C49.6004 53.5639 59.6201 49.9026 62.9619 59.2759C62.9619 59.2759 55.4684 66.9324 42.9281 66.9324C30.3199 66.9324 22.8943 59.2759 22.8943 59.2759Z" fill="#10ABFE"/>
</svg>
