<svg width="70" height="65" viewBox="0 0 70 65" fill="none" xmlns="http://www.w3.org/2000/svg">
<path d="M34.9281 0.0327148C15.9592 0.0327148 0.586914 14.4132 0.586914 32.1584C0.586914 49.9035 15.9592 64.284 34.9281 64.284C53.8971 64.284 69.2693 49.9035 69.2693 32.1584C69.2693 14.4132 53.8971 0.0327148 34.9281 0.0327148ZM14.8943 51.2759C18.2361 41.9026 28.2559 45.5639 29.9211 40.4825V37.102C29.1678 36.7258 27.0268 34.1348 26.7889 32.1054C26.1998 32.063 25.2822 31.5119 24.999 29.3448C24.8574 28.1738 25.4352 27.5274 25.792 27.3154C25.792 27.3154 24.9141 25.4344 24.9141 23.5746C24.9141 18.0216 27.8537 13.4171 34.9281 13.4171C38.7514 13.4171 39.9352 15.9498 39.9352 15.9498C43.3563 15.9498 44.9422 19.4628 44.9422 23.564C44.9422 25.6092 44.0586 27.3154 44.0586 27.3154C44.4211 27.5168 44.9988 28.1738 44.8572 29.3342C44.574 31.5119 43.6564 32.063 43.0674 32.1054C42.8295 34.1348 40.6828 36.7152 39.9352 37.102V40.4825C41.6004 45.5639 51.6201 41.9026 54.9619 51.2759C54.9619 51.2759 47.4684 58.9324 34.9281 58.9324C22.3199 58.9324 14.8943 51.2759 14.8943 51.2759Z" fill="#10ABFE"/>
</svg>
